<svg enable-background="new 0 0 512.077 512.077" height="512" viewBox="0 0 512.077 512.077" width="512" xmlns="http://www.w3.org/2000/svg"><path d="m418.424 118.764c-31.603-35.498-77.52-42.36-114.803-19.389-5.422-21.337-16.122-41.697-31.11-58.532-23.448-26.338-53.956-40.843-85.906-40.843-44.932 0-87.594 29.747-108.687 75.783-1.726 3.766-.071 8.217 3.694 9.942 3.767 1.727 8.218.071 9.942-3.694 18.657-40.72 55.967-67.031 95.051-67.031 57.305 0 106.067 55.149 106.067 116.199 0 61.962-42.028 161.258-92.788 176.606-.064.018-.128.038-.192.058-8.481 2.528-17.11 2.703-26.184-.003-.059-.018-.117-.036-.176-.053-50.763-15.343-92.794-114.643-92.794-176.608 0-5.527.428-11.161 1.272-16.745.62-4.096-2.198-7.918-6.294-8.537-4.101-.619-7.918 2.198-8.537 6.294-.957 6.324-1.441 12.712-1.441 18.988 0 36.425 13.414 84.637 34.174 122.825 7.628 14.032 15.826 26.126 24.43 36.148-2.359 1.361-4.546 3.032-6.495 4.98-12.227 12.227-12.227 32.121 0 44.347 5.922 5.923 13.797 9.185 22.173 9.185 7.235 0 14.096-2.434 19.647-6.914l-2.605 10.388c-1.529 6.097 3.077 12.013 9.372 12.013h12.871v9.622c0 7.296-1.437 14.405-4.271 21.129l-5.271 12.503c-7.221 17.129-7.221 36.778-.001 53.908 5.465 12.967 5.715 27.348.705 40.496-1.475 3.871.467 8.204 4.337 9.679s8.204-.467 9.679-4.337c6.392-16.773 6.073-35.121-.899-51.664-5.659-13.427-5.659-28.828.001-42.255l5.271-12.503c3.616-8.578 5.449-17.647 5.449-26.955v-9.622h12.871c6.284 0 10.903-5.906 9.372-12.013l-2.607-10.392c12.294 9.899 30.397 9.159 41.822-2.267 12.227-12.227 12.227-32.121 0-44.347-1.948-1.948-4.136-3.619-6.495-4.98 6.58-7.666 12.924-16.543 18.956-26.573 7.403 18.718 17.515 37.533 29.858 52.375-1.366.926-2.648 1.983-3.827 3.162-10.256 10.256-10.256 26.944 0 37.2 4.968 4.968 11.574 7.705 18.6 7.705 4.605 0 9.03-1.176 12.931-3.385l-.898 3.579c-1.529 6.097 3.077 12.012 9.372 12.012h7.968v5.995c0 5.538-1.091 10.934-3.242 16.036l-4.154 9.854c-5.856 13.893-5.857 29.829-.001 43.723 4.148 9.841 4.338 20.756.535 30.734-2.723 7.145-3.95 14.644-3.645 22.287.164 4.107 3.615 7.355 7.793 7.195 4.139-.165 7.36-3.654 7.195-7.793-.224-5.606.675-11.105 2.673-16.346 5.185-13.604 4.926-28.485-.729-41.902-4.295-10.191-4.295-21.88.001-32.07l4.154-9.855c2.933-6.957 4.419-14.312 4.419-21.863v-5.995h7.969c6.285 0 10.903-5.906 9.372-12.012l-.898-3.579c3.901 2.209 8.326 3.385 12.931 3.385 7.026 0 13.632-2.736 18.601-7.705 10.255-10.256 10.255-26.944 0-37.2-1.194-1.194-2.495-2.263-3.88-3.198 7.648-9.176 14.857-20.34 21.218-32.923 1.869-3.697.387-8.208-3.31-10.077-3.695-1.868-8.208-.388-10.077 3.31-11.807 23.355-33.362 53.989-59.425 53.989-30.343 0-58.224-43.054-71.909-84.118 18.396-36.771 30.052-80.965 30.052-114.919 0-5.276-.342-10.568-1.01-15.84 13.103-9.382 27.841-14.318 42.868-14.318 42.921 0 82.01 42.896 82.01 89.996 0 15.348-3.36 34.217-9.462 53.134-1.271 3.942.893 8.168 4.835 9.44 3.942 1.273 8.169-.895 9.44-4.835 6.569-20.364 10.187-40.87 10.187-57.739 0-25.863-10.247-52.206-28.115-72.275zm-278.604 214.92c-4.369 0-8.477-1.701-11.567-4.791-6.378-6.378-6.378-16.756 0-23.134 1.958-1.958 4.297-3.351 6.878-4.114 7.446 6.906 15.127 12.327 22.947 16.184.08 1.213.449 2.348 1.039 3.335l-7.729 7.729c-3.09 3.09-7.198 4.791-11.568 4.791zm33.256 15.487 4.3-17.146c1.063-4.239 4.858-7.2 9.229-7.2s8.165 2.96 9.228 7.2l4.301 17.146zm71.88-20.278c-6.378 6.379-16.756 6.378-23.134 0l-7.729-7.729c.59-.988.958-2.122 1.039-3.335 7.82-3.857 15.501-9.278 22.947-16.184 2.581.763 4.92 2.156 6.878 4.114 6.377 6.378 6.377 16.756-.001 23.134zm67.699 20.148c-3.02 0-5.858-1.176-7.993-3.311-4.407-4.408-4.407-11.579 0-15.987 1.125-1.125 2.432-1.98 3.866-2.54 5.239 4.784 10.792 8.806 16.632 11.829.102.587.273 1.151.503 1.683l-5.015 5.016c-2.134 2.134-4.973 3.31-7.993 3.31zm28.248 12.206 2.894-11.538c.661-2.633 3.018-4.473 5.732-4.473s5.072 1.839 5.732 4.473l2.894 11.538zm53.494-15.518c-2.135 2.135-4.974 3.311-7.994 3.311s-5.858-1.176-7.993-3.311l-5.016-5.016c.239-.551.413-1.136.514-1.747 5.601-2.92 11.124-6.856 16.544-11.794 1.465.559 2.799 1.424 3.945 2.57 4.407 4.408 4.407 11.58 0 15.987z"/><path d="m105.537 131.199c0-22.796 9.106-46.018 24.983-63.711 15.677-17.469 36.118-27.488 56.085-27.488 4.142 0 7.5-3.358 7.5-7.5s-3.358-7.5-7.5-7.5c-24.22 0-48.731 11.835-67.248 32.47-18.315 20.41-28.819 47.284-28.819 73.729 0 4.142 3.358 7.5 7.5 7.5s7.499-3.358 7.499-7.5z"/></svg>