<svg enable-background="new 0 0 511.994 511.994" height="512" viewBox="0 0 511.994 511.994" width="512" xmlns="http://www.w3.org/2000/svg"><path d="m509.107 469.079-267.464-267.464c-31.025-31.024-48.112-72.278-48.112-116.161v-12.994c0-2.985-.188-5.976-.561-8.929h29.754c13.739 0 26.654-5.352 36.366-15.071s15.056-22.639 15.045-36.378c-.004-5.679-4.641-10.299-10.336-10.299h-52.604c-4.143 0-7.5 3.358-7.5 7.5s3.357 7.5 7.5 7.5h47.646c-1.01 7.955-4.601 15.31-10.361 21.074-6.878 6.883-16.025 10.674-25.756 10.674h-59.928c-4.143 0-7.5 3.358-7.5 7.5s3.357 7.5 7.5 7.5h15.022c.472 2.935.712 5.935.712 8.929v12.995c0 47.89 18.646 92.91 52.505 126.767l258.656 258.657h-23.845c-4.348 0-8.671-.161-12.963-.479l-81.389-81.389c-2.93-2.929-7.678-2.929-10.607 0s-2.929 7.678 0 10.606l67.097 67.097c-31.394-7.032-60.217-22.81-83.52-46.113-15.457-15.428-35.761-35.697-51.217-51.127 30.951.012 22.844.009 24.251.009 4.005 0 7.584-2.39 9.118-6.09 1.534-3.702.695-7.925-2.138-10.759l-124.931-124.93c-2.93-2.929-7.678-2.929-10.607 0s-2.929 7.678 0 10.606l116.17 116.169-22.8-.009-77.804-77.804c-2.93-2.929-7.678-2.929-10.607 0s-2.929 7.678 0 10.606l67.189 67.189-22.799-.009-48.889-48.888c-2.93-2.929-7.678-2.929-10.607 0s-2.929 7.678 0 10.606l36.594 36.594c-40.126-6.924-75.002-34.638-90.174-73.278-4.162-10.599-3.191-21.998 1.712-31.477.037-.068.073-.136.107-.206 4.178-7.961 11.139-14.546 20.165-18.127 3.85-1.527 5.733-5.887 4.206-9.737-1.526-3.851-5.886-5.733-9.737-4.207-10.481 4.157-18.949 11.246-24.821 19.939-16.234-4.293-32.888-6.728-49.67-7.263v-98.115h6.452c6.169 0 10.66-5.849 9.061-11.809l-8.191-30.57c-1.068-3.988-3.798-7.194-7.321-8.954v-6.503c0-30.7 24.977-55.677 55.677-55.677h53.342c4.143 0 7.5-3.358 7.5-7.5s-3.357-7.5-7.5-7.5h-53.342c-38.972 0-70.677 31.706-70.677 70.677v5.439c-19.127 2.25-36.378 13.443-46.13 30.333l-4.826 8.36c-1.628 2.817-1.628 6.318-.002 9.136 1.627 2.818 4.658 4.569 7.912 4.569h43.046v105.502c0 38.671 12.202 75.441 35.286 106.333 2.466 3.301 7.164 4.01 10.497 1.519 3.318-2.479 3.998-7.179 1.519-10.497-19.609-26.242-30.64-57.12-32.128-89.728 14.444.506 28.785 2.522 42.805 6.016-3.613 11.263-3.53 23.748 1.096 35.528 9.659 24.599 26.285 45.61 48.081 60.764 46.501 32.329 89.103 21.564 112.693 23.732l29.142 29.142h-63.276l2.094-3.626c2.071-3.587.842-8.174-2.745-10.245-3.589-2.072-8.175-.842-10.245 2.745-1.811 3.138-11.189 19.38-13.002 22.52-2.018 3.495-5.367 6.08-9.88 6.985-10.063 1.883-18.741-7.059-16.833-16.949.759-3.931-1.703-7.753-5.571-8.704-21.476-6.656-41.773-17.748-59.826-33.792-3.098-2.752-7.838-2.471-10.589.625s-2.472 7.837.624 10.588c9.275 8.242 19.232 15.409 29.801 21.464-2.837 6.007-3.462 12.581-2.144 18.721l-30.063 52.07h-24.23c-21.305 0-38.638 17.333-38.638 38.638 0 5.826 4.773 10.566 10.641 10.566h82.779c4.143 0 7.5-3.358 7.5-7.5s-3.357-7.5-7.5-7.5h-44.888c2.08-10.922 11.701-19.204 23.221-19.204h26.684c3.829 0 7.397-2.06 9.312-5.376l26.831-46.473c3.374 3.196 7.466 5.543 11.857 6.858l-20.061 34.747c-1.915 3.316-1.914 7.437 0 10.753 1.915 3.316 5.483 5.376 9.312 5.376h6.584c8.197 0 15.095 5.685 16.954 13.319h-30.807c-4.143 0-7.5 3.358-7.5 7.5s3.357 7.5 7.5 7.5h35.428c2.911 0 5.646-1.139 7.703-3.208 2.045-2.057 3.171-4.786 3.169-7.684-.01-17.624-14.152-32.01-31.681-32.419l20.841-36.097c6.968-2.24 12.776-6.92 16.461-13.304l2.248-3.894c1.059.002 82.161.001 83.146.001 2.429 0 4.825.949 6.624 2.744l14.855 14.856c17.421 17.421 37.795 31.034 60.557 40.462s46.795 14.208 71.432 14.208h36.301c3.994 0 7.563-2.384 9.092-6.075s.692-7.897-2.132-10.722zm-449.796-376.599h.882l6.113 22.816h-47.014c8.339-14.087 23.625-22.816 40.019-22.816zm112.732 311.472c.068 1.694.283 3.368.636 5.006l-4.77 8.261c-2.365-.074-4.694-.729-6.773-1.929-6.388-3.688-8.896-11.551-6.074-18.173 5.518 2.561 11.181 4.842 16.981 6.835zm-86.761 72.055h2.572c-4.217 5.437-7.018 12.024-7.842 19.204h-17.951c2.08-10.922 11.701-19.204 23.221-19.204zm57.346-15h-15.794l21.274-36.847c3.331 3.154 7.39 5.512 11.846 6.84z"/></svg>