<svg enable-background="new 0 0 512 512" height="512" viewBox="0 0 512 512" width="512" xmlns="http://www.w3.org/2000/svg"><path d="m500.928 108.194-1.961.525-33.552-19.37c-5.818-3.36-12.596-4.253-19.085-2.513l-5.638 1.511v-59.451c0-3.145-1.691-6.074-4.414-7.647-2.723-1.571-6.106-1.574-8.833-.001l-94.218 54.397c-3.587 2.071-4.816 6.658-2.745 10.245 2.071 3.588 6.658 4.815 10.245 2.745l84.965-49.055v52.786l-143.867 38.549c-1.975.529-3.889 1.186-5.736 1.96 5.475-7.647 12.57-14.179 20.951-19.017l13.314-7.687c3.587-2.071 4.816-6.658 2.745-10.245s-6.658-4.815-10.245-2.745l-13.314 7.687c-16.18 9.342-28.443 23.841-35.186 40.72-6.018-14.506-14.858-27.774-26.002-38.919l-90.408-90.408c-3.711-3.711-9.242-4.81-14.091-2.803-4.849 2.009-7.982 6.698-7.982 11.947v78.882l-50.2-13.451c-6.489-1.739-13.267-.847-19.086 2.513l-33.551 19.37-1.96-.525c-5.601-1.499-11.074 2.715-11.074 8.495v311.115c0 3.977 2.683 7.47 6.52 8.495l228.427 61.207c12.923 8.031 29.181 8.033 42.106 0l228.423-61.205c3.841-1.027 6.524-4.521 6.524-8.497v-311.115c0-5.81-5.513-9.992-11.072-8.495zm-215.221 37.21 164.506-44.079c2.619-.703 5.354-.341 7.703 1.015l20.561 11.87-202.677 54.307c-2.841.76-5.5 1.899-8.119 3.289 0 .001-.001.001-.001.001-1.347.715-2.742 1.298-4.168 1.75.345-13.208 9.374-24.718 22.195-28.153zm-154.837-119.003 86.875 86.875c5.539 5.539 10.427 11.678 14.582 18.274-.709-.228-1.426-.44-2.152-.635l-99.305-26.609zm-115.87 98.374 58.979 15.803c3.996 1.074 8.114-1.301 9.186-5.303 1.072-4.001-1.303-8.114-5.304-9.186l-44.337-11.88 20.56-11.87c2.349-1.355 5.083-1.718 7.704-1.015 9.11 2.441 158.612 42.5 164.505 44.079 12.821 3.435 21.85 14.945 22.196 28.153-1.426-.452-2.822-1.035-4.169-1.751-2.623-1.392-5.284-2.531-8.119-3.289l-124.283-33.302c-3.998-1.075-8.113 1.301-9.186 5.303-1.072 4.001 1.302 8.113 5.304 9.186l122.48 32.819v298.269l-215.516-57.748zm230.517 361.427v-297.884c6.864 1.873 14.103 1.873 20.967 0v297.884c-6.653 3.096-14.315 3.096-20.967 0zm251.483-63.159-215.517 57.749v-298.269l215.517-57.748z"/><path d="m320.789 398.863c2.754 2.679 6.377 4.104 10.206 3.987 7.048-.213 12.247 3.534 13.933 9.979 1.989 7.602 9.794 12.103 17.381 10.07l60.518-16.216c5.49-1.471 9.568-6.111 10.39-11.823 1.516-10.542 9.708-20.858 19.919-25.086 5.385-2.229 8.865-7.39 8.865-13.148v-53.843c0-4.143-3.358-7.5-7.5-7.5s-7.5 3.357-7.5 7.5v53.298c-14.778 6.291-26.191 20.771-28.573 36.252l-59.217 15.868c-3.53-12.132-13.974-20.358-27.726-20.358v-138.357c14.778-6.292 26.191-20.771 28.573-36.253l59.217-15.867c3.524 12.108 13.947 20.357 27.726 20.357v50.06c0 4.143 3.358 7.5 7.5 7.5s7.5-3.357 7.5-7.5v-50.887c0-7.811-6.415-14.416-14.512-14.181-7.051.166-12.247-3.534-13.932-9.978-.958-3.66-3.29-6.726-6.568-8.631-3.292-1.914-7.132-2.426-10.813-1.439l-60.52 16.216c-5.489 1.472-9.567 6.112-10.388 11.822-1.516 10.542-9.708 20.858-19.919 25.088-5.385 2.228-8.865 7.389-8.865 13.146v139.73c-.001 3.818 1.569 7.534 4.305 10.194z"/></svg>