<svg enable-background="new 0 0 512 512" height="512" viewBox="0 0 512 512" width="512" xmlns="http://www.w3.org/2000/svg"><path d="m480.396 29.037h-24.907v-7.668c0-11.783-9.586-21.369-21.369-21.369h-5.969c-11.783 0-21.37 9.586-21.37 21.369v7.668h-38.859v-7.668c0-11.783-9.587-21.369-21.37-21.369h-5.969c-11.783 0-21.369 9.586-21.369 21.369v7.668h-38.86v-7.668c0-11.783-9.586-21.369-21.37-21.369h-5.969c-11.783 0-21.37 9.586-21.37 21.369v7.668h-38.86v-7.668c.001-11.783-9.585-21.369-21.368-21.369h-5.969c-11.783 0-21.37 9.586-21.37 21.369v7.668h-38.859v-7.668c0-11.783-9.587-21.369-21.37-21.369h-5.969c-11.783 0-21.369 9.586-21.369 21.369v7.668h-24.907c-11.678 0-21.179 9.501-21.179 21.18v63.465c0 3.536 1.591 6.706 4.094 8.834v285.201c0 4.143 3.358 7.5 7.5 7.5s7.5-3.357 7.5-7.5v-282.44h51.346c4.142 0 7.5-3.357 7.5-7.5s-3.358-7.5-7.5-7.5h-55.44v-60.06c0-3.407 2.772-6.18 6.179-6.18h24.907v17.61c0 11.783 9.586 21.369 21.369 21.369h5.969c11.783 0 21.37-9.586 21.37-21.369v-17.61h38.859v17.61c0 11.783 9.586 21.369 21.37 21.369h5.969c11.783 0 21.369-9.586 21.369-21.369v-17.61h38.86v17.61c0 11.783 9.586 21.369 21.37 21.369h5.969c11.783 0 21.37-9.586 21.37-21.369v-17.61h38.86v17.61c0 11.783 9.586 21.369 21.369 21.369h5.969c11.783 0 21.37-9.586 21.37-21.369v-17.61h38.859v17.61c0 11.783 9.586 21.369 21.37 21.369h5.969c11.783 0 21.369-9.586 21.369-21.369v-17.61h24.907c3.407 0 6.179 2.772 6.179 6.18v60.06h-370.711c-4.142 0-7.5 3.357-7.5 7.5s3.358 7.5 7.5 7.5h366.617v217.113c0 36.788-29.93 66.718-66.718 66.718-11.676 0-21.174 9.499-21.174 21.175 0 36.788-29.93 66.718-66.718 66.718h-292.174c-3.407 0-6.179-2.772-6.179-6.18v-48.104c0-4.143-3.358-7.5-7.5-7.5s-7.5 3.357-7.5 7.5v48.104c0 11.679 9.501 21.18 21.179 21.18h440.604c11.678 0 21.179-9.501 21.179-21.18v-368.305c2.503-2.128 4.094-5.299 4.094-8.834v-63.465c.001-11.679-9.5-21.18-21.179-21.18zm-390.177 32.61c0 3.512-2.857 6.369-6.37 6.369h-5.969c-3.512 0-6.369-2.857-6.369-6.369v-40.278c0-3.512 2.857-6.369 6.369-6.369h5.969c3.512 0 6.37 2.857 6.37 6.369zm87.567 0c0 3.512-2.857 6.369-6.369 6.369h-5.969c-3.512 0-6.37-2.857-6.37-6.369v-40.278c0-3.512 2.857-6.369 6.37-6.369h5.969c3.512 0 6.369 2.857 6.369 6.369zm87.568 0c0 3.512-2.857 6.369-6.37 6.369h-5.969c-3.512 0-6.37-2.857-6.37-6.369v-40.278c0-3.512 2.857-6.369 6.37-6.369h5.969c3.512 0 6.37 2.857 6.37 6.369zm87.568 0c0 3.512-2.857 6.369-6.37 6.369h-5.969c-3.512 0-6.369-2.857-6.369-6.369v-40.278c0-3.512 2.857-6.369 6.369-6.369h5.969c3.512 0 6.37 2.857 6.37 6.369zm87.567 0c0 3.512-2.857 6.369-6.369 6.369h-5.969c-3.512 0-6.37-2.857-6.37-6.369v-40.278c0-3.512 2.857-6.369 6.37-6.369h5.969c3.512 0 6.369 2.857 6.369 6.369zm-30.9 368.635c0-3.405 2.77-6.175 6.174-6.175 23.723 0 45.117-10.161 60.059-26.359-6.81 21.462-18.712 41.124-35.091 57.502-16.378 16.379-36.041 28.281-57.502 35.091 16.199-14.942 26.36-36.336 26.36-60.059zm72.892 60.538c0 3.407-2.772 6.18-6.179 6.18h-69.077c32.811-15.515 59.73-42.421 75.256-75.256z"/><path d="m256 335.324c16.093 0 29.186-13.093 29.186-29.186 0-16.094-13.093-29.187-29.186-29.187s-29.186 13.093-29.186 29.187c0 16.093 13.093 29.186 29.186 29.186zm0-43.372c7.822 0 14.186 6.364 14.186 14.187s-6.364 14.186-14.186 14.186-14.186-6.363-14.186-14.186 6.364-14.187 14.186-14.187z"/><path d="m112.256 306.139c0 14.345 7.904 26.888 19.928 33.212-7.309 11.707-7.655 26.563-.67 38.66 6.984 12.096 20.02 19.225 33.815 18.749-.535 13.576 6.375 26.692 18.798 33.865 12.258 7.078 27.074 6.701 38.727-.653 6.484 12.183 19.176 19.911 33.145 19.911 13.966 0 26.66-7.725 33.145-19.911 11.638 7.345 26.455 7.74 38.727.653 12.423-7.172 19.334-20.288 18.798-33.864 13.792.476 26.831-6.652 33.815-18.749 6.983-12.095 6.64-26.951-.67-38.66 12.025-6.324 19.928-18.867 19.928-33.212 0-14.346-7.904-26.888-19.928-33.213 7.308-11.707 7.655-26.562.67-38.659-6.982-12.095-20.019-19.226-33.815-18.75.535-13.576-6.376-26.693-18.798-33.865s-27.237-6.599-38.727.653c-6.484-12.183-19.175-19.911-33.145-19.911-13.967 0-26.659 7.725-33.145 19.91-11.49-7.252-26.305-7.826-38.727-.653-12.423 7.171-19.333 20.288-18.798 33.865-13.822-.477-26.845 6.675-33.815 18.75-6.983 12.095-6.64 26.95.67 38.659-12.024 6.324-19.928 18.867-19.928 33.213zm32.248 64.372c-6.88-11.915-1.561-27.164 11.216-32.226l43.428-17.213c2.711 10.312 8.16 19.526 15.52 26.813l-36.647 29.025c-10.811 8.562-26.659 5.48-33.517-6.399zm111.496-108.147c22.804 0 41.59 17.527 43.597 39.817.003.031.005.062.008.093 2.257 25.675-18.042 47.638-43.605 47.638-25.565 0-45.862-21.965-43.605-47.638.003-.031.006-.062.008-.093 2.007-22.29 20.793-39.817 43.597-39.817zm-64.372 155.27c-8.703-5.025-12.961-15.352-10.629-24.907 2.223-1.127 4.346-2.483 6.335-4.057l38.725-30.67-7.199 48.872c-.37 2.509-.481 5.026-.346 7.514-7.111 6.797-18.185 8.272-26.886 3.248zm64.372 17.248c-13.758 0-24.304-12.229-22.301-25.825l6.808-46.217c9.768 2.672 20.554 2.853 30.986 0l6.808 46.217c2.005 13.611-8.558 25.825-22.301 25.825zm64.372-17.248c-8.703 5.024-19.775 3.548-26.885-3.249.135-2.488.023-5.005-.346-7.514l-7.199-48.872 38.725 30.671c1.988 1.575 4.112 2.93 6.335 4.057 2.331 9.556-1.927 19.882-10.63 24.907zm47.124-47.123c-6.866 11.894-22.721 14.949-33.516 6.4l-36.648-29.026c7.36-7.287 12.809-16.501 15.52-26.813l43.428 17.213c12.791 5.068 18.088 20.324 11.216 32.226zm.992-42.714c-2.088-1.361-4.323-2.522-6.681-3.457l-45.924-18.201 45.924-18.201c2.358-.935 4.593-2.096 6.681-3.458 9.441 2.759 16.256 11.609 16.256 21.659 0 10.049-6.815 18.9-16.256 21.658zm-.992-86.03c6.88 11.918 1.56 27.162-11.215 32.226l-43.428 17.212c-2.711-10.312-8.16-19.525-15.52-26.813l36.647-29.025c10.763-8.526 26.63-5.526 33.516 6.4zm-47.124-47.124c8.703 5.025 12.961 15.352 10.629 24.908-2.223 1.128-4.346 2.483-6.335 4.058l-38.725 30.67 7.199-48.872c.37-2.509.481-5.026.346-7.515 7.112-6.797 18.186-8.272 26.886-3.249zm-128.744 0c8.702-5.027 19.775-3.549 26.885 3.249-.135 2.489-.023 5.005.346 7.515l1.186 8.05c.604 4.099 4.414 6.928 8.513 6.327 4.098-.604 6.93-4.415 6.327-8.513l-1.186-8.05c-2.005-13.611 8.558-25.826 22.301-25.826 13.758 0 24.303 12.23 22.301 25.826l-6.808 46.216c-10.093-2.761-20.87-2.767-30.986 0l-.315-2.141c-.604-4.098-4.41-6.926-8.513-6.327-4.098.604-6.931 4.415-6.327 8.513l.707 4.797-38.725-30.67c-1.989-1.575-4.112-2.931-6.335-4.058-2.332-9.557 1.926-19.884 10.629-24.908zm-47.124 47.124c6.895-11.942 22.763-14.915 33.516-6.4l36.647 29.025c-7.36 7.287-12.809 16.501-15.52 26.813l-43.428-17.212c-12.791-5.07-18.086-20.324-11.215-32.226zm-.992 42.713c2.088 1.361 4.323 2.523 6.682 3.458l45.923 18.201-45.923 18.201c-2.358.935-4.593 2.096-6.681 3.457-9.442-2.758-16.257-11.608-16.257-21.658s6.814-18.901 16.256-21.659z"/></svg>