<svg enable-background="new 0 0 512.475 512.475" height="512" viewBox="0 0 512.475 512.475" width="512" xmlns="http://www.w3.org/2000/svg"><path d="m419.974 196.065 15.617-15.617c22.298-22.298 22.302-58.39 0-80.691-21.04-21.04-55.153-22.277-77.663-2.816l-18.955 16.388 16.388-18.954c19.461-22.509 18.225-56.623-2.816-77.664-22.246-22.246-58.443-22.246-80.691 0l-15.618 15.617-15.616-15.617c-10.777-10.776-25.105-16.711-40.345-16.711-15.241 0-29.569 5.935-40.346 16.712-4.539 4.539-8.249 9.751-11.026 15.492-1.804 3.729-.243 8.214 3.485 10.018 3.728 1.803 8.214.243 10.018-3.485 2.044-4.227 4.78-8.068 8.129-11.418 16.398-16.397 43.079-16.398 59.478 0l16.084 16.084c5.604 5.604 14.676 5.605 20.28 0l16.084-16.084c16.398-16.397 43.08-16.398 59.478 0 15.509 15.509 16.42 40.654 2.076 57.246l-63.251 73.156c-3.397 3.929-3.19 9.662.483 13.335 3.672 3.672 9.406 3.881 13.336.484l73.156-63.251c16.591-14.344 41.737-13.433 57.246 2.076 16.436 16.435 16.438 43.039 0 59.478l-16.083 16.083c-2.709 2.708-4.201 6.31-4.201 10.14s1.492 7.432 4.2 10.14l16.083 16.083c16.436 16.437 16.438 43.04 0 59.479-15.509 15.509-40.654 16.42-57.246 2.076l-73.157-63.252c-3.93-3.397-9.663-3.188-13.335.484-3.673 3.673-3.88 9.406-.483 13.335l63.251 73.156c14.345 16.592 13.434 41.737-2.076 57.247-16.398 16.397-43.079 16.397-59.478 0l-16.083-16.083c-5.603-5.604-14.675-5.606-20.28 0-24.977 24.977-11.358 11.358-16.083 16.084-16.398 16.397-43.08 16.397-59.479 0-15.509-15.509-16.421-40.655-2.076-57.247l63.251-73.155c3.397-3.93 3.19-9.663-.483-13.336-3.674-3.674-9.407-3.882-13.335-.483l-73.156 63.251c-16.593 14.345-41.739 13.432-57.247-2.076-16.398-16.398-16.398-43.08 0-59.479l16.084-16.084c5.59-5.591 5.59-14.688 0-20.279l-16.083-16.085c-16.436-16.437-16.438-43.04 0-59.478 15.508-15.509 40.654-16.421 57.247-2.076l73.156 63.252c3.93 3.397 9.663 3.188 13.335-.484 3.673-3.673 3.88-9.406.483-13.335l-63.251-73.157c-4.124-4.77-7.06-10.249-8.726-16.285-1.102-3.993-5.232-6.336-9.225-5.234s-6.336 5.232-5.234 9.225c2.263 8.199 6.246 15.636 11.838 22.104l16.387 18.953-18.953-16.387c-22.509-19.461-56.623-18.225-77.664 2.816-22.298 22.297-22.301 58.39 0 80.691l15.617 15.617-15.617 15.617c-22.298 22.298-22.301 58.39 0 80.691 21.041 21.042 55.155 22.278 77.664 2.816l18.952-16.386-16.386 18.952c-19.461 22.509-18.225 56.623 2.816 77.664 11.124 11.123 25.734 16.685 40.346 16.685 12.763 0 25.525-4.244 35.963-12.73v20.136c0 19.14 4.407 38.365 12.744 55.596 1.81 3.741 6.3 5.284 10.018 3.485 3.729-1.804 5.289-6.29 3.485-10.018-7.357-15.206-11.247-32.171-11.247-49.062v-34.708l4.999-5 5 5v34.707c0 27.417 10.676 53.192 30.062 72.577l16.973 16.973c.957.957 1.477 2.229 1.464 3.583-.012 1.353-.557 2.616-1.533 3.557-1.914 1.845-5.255 1.678-7.295-.361l-16.678-16.678c-1.201-1.202-2.385-2.44-3.518-3.681-2.793-3.059-7.537-3.273-10.596-.48s-3.274 7.537-.48 10.596c1.285 1.407 2.626 2.81 3.987 4.171l16.68 16.68c7.815 7.814 20.517 8.069 28.312.553 3.898-3.758 6.073-8.808 6.123-14.218.05-5.412-2.03-10.5-5.857-14.327l-16.973-16.973c-16.553-16.553-25.669-38.561-25.669-61.971v-20.136c22.388 18.202 55.47 16.884 76.308-3.955 21.041-21.041 22.277-55.154 2.816-77.664l-16.387-18.953 18.953 16.387c22.51 19.462 56.624 18.224 77.663-2.816 22.298-22.297 22.301-58.39 0-80.691z"/><path d="m256.238 58.811c-4.142 0-7.5 3.358-7.5 7.5v31.613l-24.042-24.041c-2.929-2.929-7.678-2.929-10.606 0-2.929 2.929-2.929 7.678 0 10.606l34.648 34.647v56.436c-6.009 2.206-10.787 6.984-12.993 12.992h-29.065l-31.824-31.824c-2.929-2.929-7.678-2.929-10.606 0-2.929 2.929-2.929 7.678 0 10.606l21.218 21.218h-23.168l-33.211-33.211c-2.929-2.929-7.678-2.929-10.606 0-2.929 2.929-2.929 7.678 0 10.606l22.605 22.604h-14.603c-4.142 0-7.5 3.358-7.5 7.5s3.358 7.5 7.5 7.5h31.614l-24.041 24.041c-2.929 2.929-2.929 7.678 0 10.606 2.929 2.929 7.678 2.929 10.606 0l34.647-34.647h56.435c2.206 6.009 6.984 10.787 12.993 12.993v29.065l-31.824 31.824c-2.929 2.929-2.929 7.678 0 10.606 2.928 2.929 7.677 2.929 10.606 0l21.218-21.217v23.168l-33.211 33.211c-2.929 2.929-2.929 7.678 0 10.606 2.929 2.929 7.678 2.929 10.606 0l22.605-22.605v14.604c0 4.142 3.358 7.5 7.5 7.5s7.5-3.358 7.5-7.5v-31.614l24.041 24.041c2.929 2.929 7.678 2.929 10.606 0 2.929-2.929 2.929-7.678 0-10.606l-34.647-34.647v-56.436c6.009-2.206 10.786-6.984 12.992-12.993h29.065l31.824 31.824c2.929 2.929 7.678 2.929 10.606 0 2.929-2.929 2.929-7.678 0-10.606l-21.218-21.218h23.168l37.055 37.055c2.928 2.929 7.677 2.929 10.606 0s2.929-7.678 0-10.606l-26.448-26.449h14.603c4.142 0 7.5-3.358 7.5-7.5s-3.358-7.5-7.5-7.5h-31.614l24.041-24.041c2.929-2.929 2.929-7.678 0-10.606-2.928-2.929-7.677-2.929-10.606 0l-34.648 34.647h-56.435c-2.206-6.009-6.984-10.786-12.992-12.992v-29.065l31.824-31.824c2.929-2.929 2.929-7.678 0-10.606-2.929-2.929-7.678-2.929-10.606 0l-21.218 21.218v-23.168l37.055-37.055c2.929-2.929 2.929-7.678 0-10.606-2.929-2.929-7.678-2.929-10.606 0l-26.448 26.449v-14.603c-.001-4.142-3.359-7.5-7.501-7.5zm0 130.434c3.761 0 6.82 3.06 6.82 6.82 0 3.761-3.06 6.821-6.82 6.821-3.761 0-6.821-3.06-6.821-6.821 0-3.76 3.059-6.82 6.821-6.82z"/></svg>