<svg enable-background="new 0 0 512 512" height="512" viewBox="0 0 512 512" width="512" xmlns="http://www.w3.org/2000/svg"><path d="m489.839 193.157-22.295-22.294c-5.552-5.552-12.934-8.609-20.785-8.609s-15.233 3.058-20.786 8.609l-61.406 61.406v-34.522l44.146-44.146c5.552-5.552 8.609-12.934 8.609-20.786s-3.058-15.233-8.609-20.785l-22.295-22.294c-5.552-5.552-12.934-8.609-20.785-8.609-.357 0-.711.013-1.065.026v-16.653c0-9.649-7.851-17.5-17.5-17.5h-11.247c-.968-6.069-3.803-11.666-8.233-16.096l-22.296-22.294c-5.553-5.552-12.935-8.61-20.786-8.61s-15.233 3.058-20.786 8.61l-38.391 38.39h-194.263c-9.649 0-17.5 7.851-17.5 17.5v430c0 9.649 7.851 17.5 17.5 17.5h262.087c4.143 0 7.5-3.358 7.5-7.5s-3.357-7.5-7.5-7.5h-262.087c-1.379 0-2.5-1.122-2.5-2.5v-430c0-1.378 1.121-2.5 2.5-2.5h179.263l-42.633 42.633c-2.929 2.929-2.929 7.678 0 10.606s7.677 2.93 10.607 0l96.023-96.023c5.611-5.612 14.746-5.612 20.357 0l22.294 22.294c2.72 2.719 4.217 6.334 4.217 10.179s-1.497 7.46-4.217 10.179l-138.37 138.371-42.652-42.652 17.584-17.584c2.929-2.929 2.929-7.678 0-10.606s-7.677-2.929-10.607 0l-50.755 50.755c-6.338 6.338-6.338 16.653 0 22.992l1.509 1.509-25.236 25.236c-2.854 2.854-4.057 6.915-3.219 10.863.839 3.948 3.588 7.169 7.354 8.617l26.009 10.004c7.523 2.908 16.218 1.118 21.988-4.667l11.579-11.578.889.889c3.07 3.071 7.153 4.763 11.497 4.763 4.343 0 8.426-1.691 11.496-4.762l171.542-171.543c3.022-3.022 5.298-6.588 6.752-10.475h12.73c1.379 0 2.5 1.122 2.5 2.5v21.4c-1.682 1.102-3.265 2.381-4.72 3.836l-171.541 171.541c-3.071 3.071-4.763 7.154-4.763 11.497s1.691 8.426 4.762 11.496l1.509 1.509-25.234 25.235c-2.854 2.854-4.059 6.914-3.221 10.862s3.586 7.17 7.354 8.619l26.009 10.003c7.524 2.909 16.215 1.119 21.989-4.667l11.578-11.578.89.89c3.17 3.169 7.333 4.753 11.496 4.753s8.326-1.585 11.496-4.754l112.396-112.396v34.522l-95.136 95.136c-6.338 6.339-6.338 16.653 0 22.992l1.509 1.509-25.235 25.235c-2.854 2.853-4.058 6.914-3.221 10.861.838 3.948 3.587 7.17 7.354 8.62l26.008 10.003c7.523 2.909 16.217 1.119 21.989-4.666l11.578-11.578.889.889c3.17 3.169 7.332 4.754 11.496 4.754 4.163 0 8.327-1.585 11.497-4.754l31.27-31.27v119.5c0 1.378-1.121 2.5-2.5 2.5h-18.913c-4.143 0-7.5 3.358-7.5 7.5s3.357 7.5 7.5 7.5h18.913c9.649 0 17.5-7.851 17.5-17.5v-134.499l125.272-125.272c11.462-11.462 11.462-30.11.002-41.571zm-379.864 50.943c-1.571 1.569-3.925 2.069-5.997 1.272l-21.521-8.277 21.836-21.835 17.261 17.261zm35.461-10.689c-.305.304-.651.368-.889.368s-.585-.064-.89-.369l-40.873-40.872c-.491-.491-.491-1.289 0-1.78l22.564-22.564 42.652 42.652zm210.018-133.069c2.718-2.719 6.333-4.216 10.178-4.216 3.846 0 7.46 1.497 10.179 4.216l22.294 22.294c5.613 5.613 5.613 14.745 0 20.358l-138.37 138.37-42.651-42.651zm-164.352 224.884c-1.57 1.571-3.925 2.07-5.997 1.273l-21.521-8.277 21.835-21.835 17.261 17.261zm35.46-10.689c-.49.492-1.288.49-1.778 0l-40.873-40.874c-.305-.304-.368-.651-.368-.889 0-.237.063-.584.369-.89l22.564-22.564 42.651 42.651zm45.666 91.815c-1.569 1.57-3.924 2.068-5.997 1.272l-21.521-8.277 21.836-21.835 17.261 17.261zm35.462-10.69c-.49.491-1.289.491-1.779.001l-40.873-40.873c-.491-.491-.491-1.289 0-1.779l22.564-22.564 42.652 42.652zm171.541-171.541-138.37 138.371-42.652-42.652 138.37-138.371c2.72-2.719 6.334-4.216 10.18-4.216 3.845 0 7.46 1.497 10.178 4.216l22.295 22.294c5.612 5.612 5.612 14.745-.001 20.358z"/><path d="m58.063 342.958c-7.639-.559-14.649 6.029-14.497 13.691v111.639c0 7.561 6.15 13.711 13.711 13.711h111.639c7.663.153 14.248-6.862 13.69-14.497-1.701-32.493-15.338-63.086-38.397-86.146-23.06-23.058-53.653-36.695-86.146-38.398zm91.14 68.134-79.518 44.414 42.826-80.382c14.757 9.107 27.301 21.41 36.692 35.968zm-49.939-43.006-40.698 76.389v-86.463c14.459.915 28.175 4.428 40.698 10.074zm-19.397 98.914 76.636-42.805c6.218 13.085 10.084 27.531 11.05 42.805z"/></svg>