<svg enable-background="new 0 0 511.84 511.84" height="512" viewBox="0 0 511.84 511.84" width="512" xmlns="http://www.w3.org/2000/svg"><path d="m504.34 214.418c4.142 0 7.5-3.358 7.5-7.5v-150.07c0-10.752-8.748-19.5-19.5-19.5h-414.51c-4.142 0-7.5 3.358-7.5 7.5s3.358 7.5 7.5 7.5h414.51c2.481 0 4.5 2.019 4.5 4.5v38.855h-481.84v-38.855c0-2.481 2.019-4.5 4.5-4.5h23.33c4.142 0 7.5-3.358 7.5-7.5s-3.358-7.5-7.5-7.5h-23.33c-10.752 0-19.5 8.748-19.5 19.5v198.19c0 10.752 8.748 19.5 19.5 19.5h98.33v72.649h-38.335c-6.341 0-11.5 5.159-11.5 11.5v104.305c0 6.341 5.159 11.5 11.5 11.5h91.664c6.341 0 11.5-5.159 11.5-11.5v-86.284c0-3.058-1.249-6.042-3.425-8.187l-18.27-18.021c-2.166-2.136-5.034-3.312-8.076-3.312h-20.058v-72.649h246.18v72.649h-61.695c-6.341 0-11.5 5.159-11.5 11.5v59.041c-.002.079-.001.157 0 .236v45.027c0 6.341 5.159 11.5 11.5 11.5h138.398c6.341 0 11.5-5.159 11.5-11.5v-104.305c0-6.341-5.159-11.5-11.5-11.5h-61.703v-72.649h98.33c10.752 0 19.5-8.748 19.5-19.5v-13.12c0-4.142-3.358-7.5-7.5-7.5s-7.5 3.358-7.5 7.5v13.12c0 2.481-2.019 4.5-4.5 4.5h-472.84c-2.481 0-4.5-2.019-4.5-4.5v-144.335h481.84v96.215c0 4.143 3.358 7.5 7.5 7.5zm-52.128 245.074h-131.398v-37.105l38.01-20.221 19.483 23.936c3.503 4.315 9.579 5.501 14.422 2.838l28.316-15.435 31.167 20.36zm0-97.305v53.761l-24.688-16.127c-3.543-2.333-8.065-2.524-11.814-.491l-27.606 15.047-19.458-23.905c-3.455-4.263-9.484-5.481-14.329-2.898l-33.503 17.824v-43.21h131.398zm-300.76 0 16.206 15.985v81.319h-84.663v-97.305h68.457z"/><path d="m42.991 74.024c0 4.142 3.358 7.5 7.5 7.5h262.87c4.142 0 7.5-3.358 7.5-7.5s-3.358-7.5-7.5-7.5h-262.87c-4.142 0-7.5 3.358-7.5 7.5z"/><path d="m461.349 81.524c4.142 0 7.5-3.358 7.5-7.5s-3.358-7.5-7.5-7.5h-3.391c-4.142 0-7.5 3.358-7.5 7.5s3.358 7.5 7.5 7.5z"/><path d="m432.958 81.524c4.142 0 7.5-3.358 7.5-7.5s-3.358-7.5-7.5-7.5h-3.391c-4.142 0-7.5 3.358-7.5 7.5s3.358 7.5 7.5 7.5z"/><path d="m404.567 81.524c4.142 0 7.5-3.358 7.5-7.5s-3.358-7.5-7.5-7.5h-3.392c-4.142 0-7.5 3.358-7.5 7.5s3.358 7.5 7.5 7.5z"/><path d="m119.783 155.669-22.05 55.438c-1.531 3.849.349 8.21 4.197 9.741.91.361 1.847.533 2.77.533 2.982 0 5.802-1.791 6.972-4.73l22.05-55.438c1.531-3.849-.349-8.21-4.197-9.741-3.851-1.532-8.212.348-9.742 4.197z"/><path d="m159.962 217.711c1.184.686 2.477 1.012 3.752 1.012 2.588 0 5.106-1.342 6.497-3.742l14.807-25.562c1.371-2.366 1.345-5.29-.067-7.632l-14.807-24.56c-2.138-3.547-6.748-4.69-10.295-2.55-3.547 2.139-4.689 6.748-2.55 10.295l12.518 20.763-12.585 21.727c-2.077 3.584-.854 8.173 2.73 10.249z"/><path d="m71.605 154.676c-3.549-2.14-8.157-.996-10.295 2.55l-14.807 24.56c-1.412 2.342-1.438 5.266-.067 7.632l14.807 25.562c1.391 2.401 3.908 3.742 6.497 3.742 1.276 0 2.569-.326 3.752-1.012 3.584-2.076 4.807-6.665 2.73-10.249l-12.585-21.727 12.518-20.763c2.139-3.547.998-8.156-2.55-10.295z"/><path d="m210.137 165.941h80.348c4.142 0 7.5-3.358 7.5-7.5s-3.358-7.5-7.5-7.5h-80.348c-4.142 0-7.5 3.358-7.5 7.5s3.358 7.5 7.5 7.5z"/><path d="m458.914 150.941h-136.081c-4.142 0-7.5 3.358-7.5 7.5s3.358 7.5 7.5 7.5h136.081c4.142 0 7.5-3.358 7.5-7.5s-3.358-7.5-7.5-7.5z"/><path d="m352.767 186.16c0-4.142-3.358-7.5-7.5-7.5h-135.13c-4.142 0-7.5 3.358-7.5 7.5s3.358 7.5 7.5 7.5h135.13c4.142 0 7.5-3.358 7.5-7.5z"/><path d="m458.914 178.66h-80.255c-4.142 0-7.5 3.358-7.5 7.5s3.358 7.5 7.5 7.5h80.255c4.142 0 7.5-3.358 7.5-7.5s-3.358-7.5-7.5-7.5z"/><path d="m210.137 206.379c-4.142 0-7.5 3.358-7.5 7.5s3.358 7.5 7.5 7.5h52.696c4.142 0 7.5-3.358 7.5-7.5s-3.358-7.5-7.5-7.5z"/><path d="m290.484 221.379h67.565c4.142 0 7.5-3.358 7.5-7.5s-3.358-7.5-7.5-7.5h-67.565c-4.142 0-7.5 3.358-7.5 7.5s3.358 7.5 7.5 7.5z"/><path d="m458.914 206.379h-72.69c-4.142 0-7.5 3.358-7.5 7.5s3.358 7.5 7.5 7.5h72.69c4.142 0 7.5-3.358 7.5-7.5s-3.358-7.5-7.5-7.5z"/></svg>