<svg enable-background="new 0 0 512 512" height="512" viewBox="0 0 512 512" width="512" xmlns="http://www.w3.org/2000/svg"><circle cx="71.089" cy="222.157" r="7.5"/><circle cx="163.544" cy="222.157" r="7.5"/><circle cx="256" cy="222.157" r="7.5"/><circle cx="348.456" cy="222.157" r="7.5"/><circle cx="440.911" cy="222.157" r="7.5"/><circle cx="71.089" cy="345.589" r="7.5"/><circle cx="163.544" cy="345.589" r="7.5"/><circle cx="256" cy="345.589" r="7.5"/><circle cx="348.456" cy="345.589" r="7.5"/><circle cx="440.911" cy="345.589" r="7.5"/><path d="m503.432 246.501c4.724 0 8.568-3.844 8.568-8.567v-31.554c0-4.724-3.844-8.567-8.568-8.567h-28.015v-40.237c0-2.3-.896-4.462-2.521-6.088l-25.895-25.895c-3.368-3.371-8.819-3.365-12.178-.003l-25.897 25.897c-1.626 1.626-2.521 3.788-2.521 6.088v40.237h-23.443v-10.237c0-2.3-.896-4.462-2.521-6.088l-25.895-25.895c-3.368-3.371-8.819-3.365-12.178-.003l-25.897 25.897c-1.626 1.626-2.521 3.788-2.521 6.088v10.237h-23.443v-40.237c0-2.3-.896-4.462-2.521-6.088l-25.895-25.895c-3.368-3.371-8.819-3.365-12.178-.003l-25.897 25.897c-1.626 1.626-2.521 3.788-2.521 6.088v40.237h-23.443v-10.237c0-2.3-.896-4.462-2.521-6.088l-25.895-25.895c-3.368-3.371-8.819-3.365-12.178-.003l-25.897 25.897c-1.626 1.626-2.521 3.788-2.521 6.088v10.237h-23.443v-40.237c0-2.3-.896-4.462-2.521-6.088l-25.895-25.895c-3.368-3.371-8.819-3.365-12.178-.003l-25.897 25.897c-1.626 1.626-2.521 3.788-2.521 6.088v5.767c0 4.143 3.358 7.5 7.5 7.5s7.5-3.357 7.5-7.5v-3.119l19.506-19.507 19.506 19.507v213.711h-39.014v-175.588c0-4.143-3.358-7.5-7.5-7.5-3.964 0-7.21 3.075-7.481 6.971h-28.034c-4.724 0-8.568 3.844-8.568 8.567v31.554c0 4.724 3.844 8.567 8.568 8.567h28.015v74.744h-28.015c-4.724 0-8.568 3.844-8.568 8.567v31.554c0 4.724 3.844 8.567 8.568 8.567h28.015v10.392c0 4.747 3.862 8.608 8.609 8.608h51.795c4.747 0 8.609-3.861 8.609-8.608v-10.392h23.443v10.392c0 4.747 3.862 8.608 8.609 8.608h51.795c4.747 0 8.609-3.861 8.609-8.608v-10.392h23.443v10.392c0 4.747 3.862 8.608 8.609 8.608h51.795c4.747 0 8.609-3.861 8.609-8.608v-10.392h23.443v10.392c0 4.747 3.862 8.608 8.609 8.608h51.795c4.747 0 8.609-3.861 8.609-8.608v-10.392h23.443v10.392c0 4.747 3.862 8.608 8.609 8.608h51.795c4.747 0 8.609-3.861 8.609-8.608v-10.392h28.015c4.724 0 8.568-3.844 8.568-8.567v-31.554c0-4.724-3.844-8.567-8.568-8.567h-28.015v-74.744zm-488.432-15v-18.688h21.583v18.688zm0 123.433v-18.688h21.583v18.688zm482-142.122v18.688h-21.583v-18.688zm-90.595 0v18.688h-23.443v-18.688zm-115.899 33.689h23.443v74.744h-23.443zm23.443-33.689v18.688h-23.443v-18.688zm-92.455 0v18.688h-23.443v-18.688zm-115.899 33.689h23.443v74.744h-23.443zm23.443-33.689v18.688h-23.443v-18.688zm-23.443 142.122v-18.688h23.443v18.688zm77.456 19h-39.013v-183.711l19.506-19.507 19.506 19.507v183.711zm15-19v-18.688h23.443v18.688zm77.455 19h-39.013v-55.827c0-4.143-3.358-7.5-7.5-7.5s-7.5 3.357-7.5 7.5v3.139h-23.443v-74.744h23.443v36.605c0 4.143 3.358 7.5 7.5 7.5s7.5-3.357 7.5-7.5v-122.884l19.507-19.507 19.506 19.507zm15-19v-18.688h23.443v18.688zm77.456 19h-39.013v-183.711l19.506-19.507 19.506 19.507v61.081c0 4.143 3.358 7.5 7.5 7.5s7.5-3.357 7.5-7.5v-4.803h23.443v74.744h-23.443v-34.941c0-4.143-3.358-7.5-7.5-7.5s-7.5 3.357-7.5 7.5v87.63zm15-19v-18.688h23.443v18.688zm77.455 19h-39.013v-213.711l19.506-19.507 19.506 19.507v213.711zm36.583-37.689v18.688h-21.583v-18.688z"/></svg>