<svg enable-background="new 0 0 512 512" height="512" viewBox="0 0 512 512" width="512" xmlns="http://www.w3.org/2000/svg"><path d="m378.355 168.047h38.148c4.114 2.974 9.165 4.729 14.618 4.729 13.788 0 25.006-11.218 25.006-25.006s-11.218-25.006-25.006-25.006c-5.453 0-10.504 1.755-14.618 4.729h-20.27c.417-1.599.64-3.274.64-5 0-9.289-6.436-17.119-15.128-19.358-3.03-29.801-28.271-53.135-58.86-53.135h-9.877v-11.873c5.039-2.691 8.477-8.003 8.477-14.104v-8.047c0-8.81-7.167-15.977-15.977-15.977h-118.882c-8.81 0-15.977 7.167-15.977 15.977v8.047c0 6.101 3.437 11.413 8.477 14.104v11.873h-9.876c-30.589 0-55.831 23.334-58.86 53.136-8.693 2.238-15.128 10.069-15.128 19.358 0 9.217 6.336 16.998 14.925 19.305 1.463 37.916 18.645 73.324 47.361 97.964l-8.56 18.357c-1.496 3.207-1.26 6.78.386 9.694l-53.847 115.474c-4.189-4.444-10.126-7.223-16.701-7.223-12.657 0-22.954 10.297-22.954 22.954v90.027c.001 12.657 10.298 22.954 22.955 22.954s22.954-10.297 22.954-22.954v-16.986h115.046l-8.397 24.713c-1.192 3.509-.616 7.402 1.542 10.415s5.659 4.812 9.366 4.812h53.459c3.705 0 7.206-1.798 9.364-4.811s2.734-6.906 1.543-10.415l-8.397-24.714h115.046v16.986c0 12.657 10.297 22.954 22.954 22.954 12.656 0 22.953-10.297 22.953-22.954v-90.027c0-12.657-10.297-22.954-22.953-22.954-6.575 0-12.512 2.779-16.701 7.223l-53.85-115.481c1.626-2.876 1.889-6.471.39-9.688l-8.56-18.357c21.049-18.06 36.892-42.81 43.769-71.715zm3.565-25.553h24.756c-.743 3.445-.752 7.066 0 10.553h-25.621c.424-3.51.708-6.986.865-10.553zm59.207 5.277c0 5.517-4.488 10.006-10.006 10.006s-10.006-4.489-10.006-10.006 4.488-10.006 10.006-10.006 10.006 4.488 10.006 10.006zm-247.001-107.771h13.392c4.142 0 7.5-3.358 7.5-7.5s-3.358-7.5-7.5-7.5h-20.892c-.539 0-.977-.438-.977-.977v-8.047c0-.539.438-.977.977-.977h118.882c.538 0 .977.438.977.977v8.047c0 .539-.438.977-.977.977h-62.99c-4.142 0-7.5 3.358-7.5 7.5s3.358 7.5 7.5 7.5h55.49v10h-103.882zm-24.876 25h153.635c22.086 0 40.437 16.295 43.662 37.494h-43.983c-4.143 0-7.5 3.358-7.5 7.5s3.357 7.5 7.5 7.5h54.091c2.878 0 5.219 2.243 5.219 5s-2.341 5-5.219 5h-261.176c-2.877 0-5.218-2.243-5.218-5s2.341-5 5.218-5h172.084c4.143 0 7.5-3.358 7.5-7.5s-3.357-7.5-7.5-7.5h-161.976c3.226-21.199 21.577-37.494 43.663-37.494zm-44.018 77.494h241.671c-2.708 54.878-42.596 101.37-96.106 112.494-1-12.768-11.709-22.851-24.73-22.851-13.02 0-23.729 10.084-24.729 22.851-53.51-11.123-93.398-57.616-96.106-112.494zm204.76 133.431 60.361 129.444v25.362c-12.746-27.335-52.887-113.416-70.075-150.277zm-167.85-.001 9.714 4.529c-8.852 18.984-62.676 134.408-70.075 150.276v-25.36zm59.119-5.667v14.554c0 3.549 1.757 6.695 4.447 8.615v14.669h-50.191l10.759-23.073c3.289-.612 6.178-2.726 7.674-5.935l6.692-14.352c6.691 2.372 13.584 4.223 20.619 5.522zm153.121 161.714h-107.956v-59.212h12.3c23.251 0 43.304-13.953 52.225-33.925zm-95.656-74.212h-12.3v-34.664h53.796c-3.548 19.684-20.806 34.664-41.496 34.664zm-22.853-77.371h-19.612c0-26.395 0 5.937 0-23.446 0-5.407 4.399-9.806 9.806-9.806s9.806 4.399 9.806 9.806zm-30.165 77.371h-12.3c-20.69 0-37.948-14.979-41.496-34.664h53.795v34.664zm-114.95 89.212h114.95v10.089h-119.655zm129.95-28.677c0-4.142-3.358-7.5-7.5-7.5s-7.5 3.358-7.5 7.5v13.677h-107.955l43.431-93.137c8.922 19.972 28.975 33.925 52.225 33.925h12.3v10.535c0 4.142 3.358 7.5 7.5 7.5s7.5-3.358 7.5-7.5v-87.906h10.718v161.672h-10.718v-38.766zm25.718 38.766v-10.089h114.951l4.705 10.089zm31.759-177.971c1.5 3.215 4.421 5.322 7.67 5.925l10.763 23.081h-50.192v-14.669c2.69-1.92 4.447-5.066 4.447-8.615v-14.554c7.036-1.299 13.928-3.15 20.618-5.523zm-111.391-20.147-4.568 9.797-17.774-8.288 5.297-11.359c5.441 3.694 11.139 6.986 17.045 9.85zm-107.967 238.058c-4.386 0-7.954-3.568-7.954-7.954v-90.027c0-4.386 3.568-7.954 7.954-7.954s7.954 3.568 7.954 7.954v90.027c0 4.386-3.569 7.954-7.954 7.954zm189.111 0h-43.743l8.474-24.94h26.796zm145.37-105.935c4.386 0 7.953 3.568 7.953 7.954v90.027c0 4.386-3.567 7.954-7.953 7.954s-7.954-3.568-7.954-7.954c0-2.449.001-92.975 0-90.027 0-4.386 3.568-7.954 7.954-7.954zm-85.624-130.614-17.775 8.289-4.568-9.797c5.906-2.864 11.604-6.156 17.047-9.851z"/></svg>