<svg enable-background="new 0 0 512 512" height="512" viewBox="0 0 512 512" width="512" xmlns="http://www.w3.org/2000/svg"><path d="m458.5 181c12.958 0 23.5-10.542 23.5-23.5v-1.5h2.5c15.163 0 27.5-12.336 27.5-27.5v-60c0-15.164-12.337-27.5-27.5-27.5h-2.5v-1.5c0-12.958-10.542-23.5-23.5-23.5h-242c-9.777 0-18.114 6.271-21.21 15h-23.79c-9.778 0-18.119 6.27-21.215 15h-53.785c-1.161.01-2.312.281-3.354.792l-24.472 12.236c-5.967 2.983-9.674 8.981-9.674 15.652v16.32h-51.5c-4.143 0-7.5 3.358-7.5 7.5s3.357 7.5 7.5 7.5h51.5v16.32c0 6.671 3.707 12.669 9.674 15.652l24.472 12.236c1.049.51 2.203.787 3.37.792h53.775c3.096 8.729 11.433 15 21.21 15h23.79c3.096 8.729 11.433 15 21.21 15h11.499v48.5c0 12.407 10.094 22.5 22.5 22.5h7.5v7.5c0 9.649 7.851 17.5 17.5 17.5h14.76c9.907 0 18.541 6.356 21.484 15.816l19.911 64c2.147 6.903.921 14.201-3.365 20.023-4.285 5.822-10.89 9.161-18.119 9.161h-14.824c-15.079 0-27.347 12.268-27.347 27.347v2.653h-46.5c-15.163 0-27.5 12.336-27.5 27.5v25c0 15.164 12.337 27.5 27.5 27.5h263c15.163 0 27.5-12.336 27.5-27.5v-25c0-15.164-12.337-27.5-27.5-27.5h-5.5v-2.653c0-15.079-12.268-27.347-27.347-27.347-5.523 0-10.325-3.547-11.948-8.826l-23.697-77.075c-6.641-21.596-10.008-44.003-10.008-66.599 0-28.949 23.552-52.5 52.5-52.5zm26-125c6.893 0 12.5 5.607 12.5 12.5v60c0 6.893-5.607 12.5-12.5 12.5h-2.5v-85zm-410.5 66.32v-47.64c0-.953.529-1.81 1.383-2.236l13.617-6.809v65.729l-13.617-6.809c-.854-.426-1.383-1.282-1.383-2.235zm90 21.18v-55c0-4.142-3.357-7.5-7.5-7.5s-7.5 3.358-7.5 7.5v47.5h-45v-75h52.5c4.143 0 7.5-3.358 7.5-7.5 0-4.136 3.364-7.5 7.5-7.5h22.5v105h-22.5c-4.136 0-7.5-3.364-7.5-7.5zm86.5 93.5c-4.136 0-7.5-3.364-7.5-7.5v-48.5h7.5c4.136 0 7.5 3.364 7.5 7.5v48.5zm140.5-3.5c0 24.092 3.59 47.982 10.67 71.007l23.697 77.075c3.571 11.615 14.135 19.418 26.286 19.418 6.808 0 12.347 5.539 12.347 12.347v2.653h-20.414c-4.143 0-7.5 3.358-7.5 7.5s3.357 7.5 7.5 7.5h40.914c6.893 0 12.5 5.607 12.5 12.5v25c0 6.893-5.607 12.5-12.5 12.5h-263c-6.893 0-12.5-5.607-12.5-12.5v-25c0-6.893 5.607-12.5 12.5-12.5h187.086c4.143 0 7.5-3.358 7.5-7.5s-3.357-7.5-7.5-7.5h-125.586v-2.653c0-6.808 5.539-12.347 12.347-12.347h14.824c12.049 0 23.056-5.565 30.199-15.269 7.144-9.703 9.188-21.867 5.607-33.372l-19.911-64c-4.905-15.766-19.295-26.359-35.806-26.359h-14.76c-1.379 0-2.5-1.122-2.5-2.5v-71c0-12.407-10.094-22.5-22.5-22.5h-34c-4.136 0-7.5-3.364-7.5-7.5v-120c0-4.136 3.364-7.5 7.5-7.5h242c4.687 0 8.5 3.813 8.5 8.5v118c0 4.687-3.813 8.5-8.5 8.5-37.22 0-67.5 30.28-67.5 67.5z"/><path d="m362.5 46h-126c-6.893 0-12.5 5.607-12.5 12.5v80c0 6.893 5.607 12.5 12.5 12.5h126c6.893 0 12.5-5.607 12.5-12.5v-80c0-6.893-5.607-12.5-12.5-12.5zm-2.5 90h-121v-75h121z"/><path d="m444.5 136h-46c-4.143 0-7.5 3.358-7.5 7.5s3.357 7.5 7.5 7.5h46c4.143 0 7.5-3.358 7.5-7.5s-3.357-7.5-7.5-7.5z"/><path d="m444.5 106h-46c-4.143 0-7.5 3.358-7.5 7.5s3.357 7.5 7.5 7.5h46c4.143 0 7.5-3.358 7.5-7.5s-3.357-7.5-7.5-7.5z"/><path d="m444.5 76h-46c-4.143 0-7.5 3.358-7.5 7.5s3.357 7.5 7.5 7.5h46c4.143 0 7.5-3.358 7.5-7.5s-3.357-7.5-7.5-7.5z"/><path d="m444.5 46h-46c-4.143 0-7.5 3.358-7.5 7.5s3.357 7.5 7.5 7.5h46c4.143 0 7.5-3.358 7.5-7.5s-3.357-7.5-7.5-7.5z"/></svg>