<svg enable-background="new 0 0 512 512" height="512" viewBox="0 0 512 512" width="512" xmlns="http://www.w3.org/2000/svg"><path d="m489.755 282.492c-15.42-7.993-37.919-14.354-60.887-22.098-17.093-5.762-36.281-22.299-59.489-31.67l-14.025-79.54c-3.655-20.73-21.587-35.777-42.638-35.777-7 0-13.975 1.724-20.17 4.985l-16.401 8.636c-12.614 6.643-27.676 6.641-40.291 0l-16.401-8.636c-6.195-3.262-13.17-4.985-20.17-4.985-21.05 0-38.982 15.047-42.638 35.777l-6.959 39.469c-.719 4.079 2.005 7.97 6.084 8.688 4.078.725 7.969-2.005 8.688-6.083l6.959-39.469c2.389-13.549 14.108-23.383 27.866-23.383 4.575 0 9.133 1.127 13.182 3.259l16.401 8.636c16.989 8.943 37.277 8.943 54.267 0l16.401-8.636c4.049-2.132 8.607-3.259 13.182-3.259 13.758 0 25.477 9.834 27.866 23.383 2.552 14.471 14.805 83.963 16.612 94.212-2.679.697-5.378 1.369-8.08 2.013-2.545-3.82-7.131-5.758-11.647-4.911l-22.736 4.255c-2.26-2.257-5.368-3.439-8.652-3.134l-26.164 2.401c-3.359.307-6.222 2.127-7.979 4.726-30.499-.138-21.307-.105-23.113-.105-4.715 0-8.966 2.89-10.683 7.312-28.115-1.253-56.101-5.469-83.336-12.558.895-5.078 2.794-15.845 3.594-20.381.719-4.08-2.005-7.97-6.084-8.688-4.076-.724-7.969 2.004-8.688 6.083l-1.007 5.71c-23.188 9.362-42.41 25.911-59.486 31.67-22.649 7.636-45.478 14.108-60.887 22.095-5.501 2.853-22.246 11.532-22.246 27.768 0 16.234 16.744 24.913 22.246 27.766 15.42 7.993 37.957 14.366 60.886 22.095 22.572 7.612 48.218 33.601 82.944 37.972 2.659.334 5.377.504 8.219.504 6.718 0 14.118-.948 23.009-2.907 4.045-.891 6.602-4.893 5.71-8.938-.892-4.046-4.896-6.602-8.938-5.711-10.902 2.402-18.961 3.07-26.128 2.169-30.886-3.887-54.966-28.855-80.025-37.302-5.612-1.893-11.175-3.697-16.555-5.441-27.712-8.988-56.368-18.281-56.368-30.207 0-11.927 28.658-21.22 56.372-30.208 5.379-1.744 10.941-3.548 16.554-5.44 15.826-5.337 31.17-17.208 48.253-26.286-.84 1.228-1.422 2.631-1.684 4.121l-7.132 40.447c-.957 5.427 2.336 10.595 7.658 12.021 8.077 1.753 49.166 15.755 108.541 17.531 2.298 4.651 7.381 7.13 12.383 6.196l22.749-4.249c2.234 2.227 5.322 3.425 8.644 3.126l26.167-2.401c3.339-.307 6.203-2.087 7.99-4.736l23.042.113h.057c3.205 0 6.282-1.353 8.45-3.716 1.615-1.762 2.627-3.979 2.923-6.316 5.182-1.28 7.724-1.986 21.011-5.547 5.323-1.426 8.616-6.594 7.659-12.021l-7.132-40.445c-.263-1.491-.844-2.894-1.684-4.122 17.071 9.072 32.438 20.954 48.255 26.286 5.613 1.894 11.177 3.697 16.558 5.442 27.711 8.985 56.366 18.279 56.366 30.204 0 11.926-28.654 21.218-56.365 30.205-5.381 1.745-10.945 3.55-16.561 5.443-25.104 8.463-49.124 33.411-80.021 37.3-12.973 1.632-27.565-2.289-43.014-6.441-14.519-3.903-29.531-7.939-45.039-7.939-8.37 0-17.392 1.173-28.392 3.69-4.038.924-6.562 4.946-5.638 8.983.924 4.039 4.948 6.56 8.984 5.638 9.873-2.259 17.832-3.312 25.045-3.312 29.573 0 60.875 17.916 89.926 14.264 34.713-4.368 60.402-30.369 82.941-37.97 22.646-7.635 45.482-14.11 60.889-22.097 5.502-2.852 22.244-11.53 22.244-27.765s-16.742-24.912-22.244-27.764zm-218.899-16.144 3.992 43.5-17.843 3.333-4.305-46.915zm-128.013 25.131 5.58-31.646c29.339 7.84 59.544 12.458 89.885 13.749l3.1 33.782c-54.52-1.986-92.589-14.594-98.565-15.885zm179.718 13.903-.587-6.395c-.379-4.125-4.023-7.171-8.154-6.783-4.124.379-7.161 4.029-6.783 8.154l.936 10.199-17.846 1.638-4.682-51.013 17.847-1.638.506 5.519c.378 4.125 4.032 7.158 8.153 6.784 4.125-.378 7.162-4.029 6.784-8.153l-.164-1.793 17.841-3.339c4.622 50.353 4.287 46.705 4.306 46.909zm32.284-10.105-2.983-32.497c3.924-.928 7.843-1.914 11.714-2.948l5.58 31.646c-9.26 2.483-10.869 2.926-14.311 3.799z"/></svg>