<svg enable-background="new 0 0 511.7 511.7" height="512" viewBox="0 0 511.7 511.7" width="512" xmlns="http://www.w3.org/2000/svg"><path d="m446.2 320.16c4.143 0 7.5-3.358 7.5-7.5v-212.8c0-10.752-8.748-19.5-19.5-19.5h-62.55v-54.86c0-14.061-11.439-25.5-25.5-25.5h-262.65c-14.06 0-25.5 11.439-25.5 25.5v21.92c0 4.142 3.358 7.5 7.5 7.5s7.5-3.358 7.5-7.5v-21.92c0-5.79 4.71-10.5 10.5-10.5h262.65c5.79 0 10.5 4.71 10.5 10.5v54.86h-195.25c-10.752 0-19.5 8.748-19.5 19.5v272.79c0 10.752 8.748 19.5 19.5 19.5h195.25v45.19h-283.65v-354.92c0-4.142-3.358-7.5-7.5-7.5s-7.5 3.358-7.5 7.5v403.78c0 14.061 11.439 25.5 25.5 25.5h23.54c4.142 0 7.5-3.358 7.5-7.5s-3.358-7.5-7.5-7.5h-23.54c-5.79 0-10.5-4.71-10.5-10.5v-33.86h283.65v33.86c0 5.79-4.71 10.5-10.5 10.5h-204.11c-4.142 0-7.5 3.358-7.5 7.5s3.358 7.5 7.5 7.5h204.11c14.061 0 25.5-11.439 25.5-25.5v-94.05h62.55c10.752 0 19.5-8.748 19.5-19.5v-24.99c0-4.142-3.357-7.5-7.5-7.5s-7.5 3.358-7.5 7.5v24.99c0 2.481-2.019 4.5-4.5 4.5h-272.8c-2.481 0-4.5-2.019-4.5-4.5v-272.79c0-2.481 2.019-4.5 4.5-4.5h272.8c2.481 0 4.5 2.019 4.5 4.5v212.8c0 4.142 3.357 7.5 7.5 7.5z"/><path d="m297.801 349.01c62.176 0 112.76-50.584 112.76-112.76s-50.584-112.76-112.76-112.76c-31.563 0-61.377 13.098-82.702 36.127-2.224-.727-4.595-1.126-7.058-1.126-12.55 0-22.761 10.21-22.761 22.761 0 6.27 2.549 11.956 6.664 16.076-4.582 12.429-6.903 25.494-6.903 38.922-.001 62.176 50.583 112.76 112.76 112.76zm-89.761-144.997c9.924 0 18.379-6.386 21.486-15.263h31.506c-1.898 12.437-3.033 25.966-3.333 40h-57.378c.642-8.53 2.391-16.854 5.214-24.878.823.09 1.658.141 2.505.141zm89.761-65.523c4.943 0 12.95 11.779 18.617 35.26h-37.219c5.603-23.105 13.527-35.26 18.602-35.26zm21.613 50.26c1.273 7.838 2.276 16.601 2.901 26.269-6.203 2.398-11.098 7.436-13.303 13.731h-36.312c.324-15.156 1.612-28.52 3.492-40zm75.861 40h-43.295c-2.365-6.752-7.822-12.062-14.669-14.215-.573-8.952-1.493-17.616-2.742-25.785h48.648c6.707 12.011 10.959 25.571 12.058 40zm-12.057 55h-48.649c1.248-8.168 2.169-16.829 2.741-25.78 6.849-2.154 12.308-7.466 14.671-14.22h43.293c-1.098 14.429-5.35 27.989-12.056 40zm-85.417 50.26c-3.235 0-9.656-6.409-15.31-23.552 4.281-2.727 7.593-6.842 9.297-11.709h24.63c-5.667 23.482-13.675 35.261-18.617 35.261zm-85.418-50.26c-6.706-12.011-10.958-25.571-12.058-40h57.374c.201 9.416.778 18.624 1.731 27.51-4.919 2.685-8.739 7.135-10.614 12.49zm57.918-.259c4.273 0 7.75 3.471 7.761 7.74 0 .006-.001.012-.001.018 0 .007.001.013.001.02-.01 4.271-3.487 7.742-7.761 7.742-4.279 0-7.761-3.481-7.761-7.761s3.481-7.759 7.761-7.759zm21.485.259c-2.685-7.666-9.36-13.468-17.525-14.907-.846-8.109-1.367-16.504-1.558-25.093h36.307c2.204 6.298 7.1 11.338 13.305 13.737-.624 9.666-1.627 18.426-2.9 26.263zm38.752-39.738c-.013-.001-.026-.003-.039-.004-.039-.002-.076.001-.115 0-4.227-.061-7.649-3.513-7.649-7.755 0-4.277 3.477-7.756 7.752-7.761h.012.002c4.277.003 7.755 3.483 7.755 7.761.001 4.265-3.458 7.736-7.718 7.759zm-107.849 54.738h26.126c2.845 8.13 10.177 14.167 19.015 15.126 2.152 6.768 4.561 12.6 7.206 17.452-20.815-4.984-39.063-16.641-52.347-32.578zm97.853 32.584c2.002-3.656 3.955-8.013 5.81-13.222 2.062-5.792 3.878-12.31 5.433-19.362h41.127c-13.288 15.943-31.545 27.603-52.37 32.584zm52.37-157.584h-41.127c-1.555-7.052-3.37-13.57-5.433-19.362-1.855-5.209-3.808-9.565-5.81-13.221 20.825 4.981 39.081 16.64 52.37 32.583zm-97.864-32.581c-2.633 4.817-5.178 10.862-7.527 18.428-1.373 4.422-2.605 9.167-3.707 14.153h-34.289c-.617-1.763-1.445-3.427-2.454-4.963 13.109-13.756 29.766-23.273 47.977-27.618zm-67.008 32.322c4.278 0 7.758 3.478 7.761 7.755v.004.006c-.002 4.278-3.483 7.757-7.761 7.757-4.279 0-7.761-3.481-7.761-7.761s3.481-7.761 7.761-7.761z"/></svg>