<svg enable-background="new 0 0 512.002 512.002" height="512" viewBox="0 0 512.002 512.002" width="512" xmlns="http://www.w3.org/2000/svg"><path d="m448.181 310.036c-4.175-.071-7.567 3.204-7.651 7.346-1.847 90.638-56.884 164.706-131.766 178.701-5.355-40.678-31.938-242.589-35.74-271.469 33.854-8.006 57.612-38.968 56.583-73.74l15.654-2.061c14.365-1.894 28.783 3.267 38.559 13.798 29.301 31.569 48.746 74.077 54.751 119.695.541 4.106 4.305 6.994 8.415 6.457 4.107-.541 6.998-4.309 6.457-8.415-6.409-48.675-27.23-94.112-58.629-127.941-7.291-7.855-16.503-13.475-26.552-16.473-7.777-25.493-25.956-48.928-52.229-63.619l5.969-10.319c6.727-11.626 18.176-19.77 31.412-22.342 9.442-1.836 16.294-10.098 16.294-19.646 0-5.99-2.65-11.612-7.271-15.425-4.623-3.815-10.651-5.351-16.536-4.214-24.655 4.765-45.986 19.926-58.522 41.597l-9.689 16.748c-14.191-2.463-29.098-2.468-43.32 0l-9.689-16.748c-2.074-3.585-6.661-4.811-10.248-2.736-3.585 2.074-4.81 6.662-2.736 10.248l7.46 12.894c-3.243 1.006-6.437 2.146-9.574 3.421l-6.542-11.308c-8.899-15.382-24.038-26.155-41.532-29.555-2.409-.468-4.157-2.538-4.157-4.921 0-2.05 1.139-3.296 1.818-3.856.68-.562 2.125-1.445 4.143-1.056 9.432 1.823 18.279 5.467 26.295 10.833 3.444 2.303 8.101 1.381 10.405-2.061s1.381-8.101-2.061-10.405c-9.689-6.485-20.386-10.891-31.793-13.095-5.887-1.139-11.913.398-16.536 4.214-4.621 3.813-7.271 9.436-7.271 15.425 0 9.548 6.853 17.811 16.295 19.646 13.235 2.572 24.684 10.716 31.41 22.342l5.97 10.319c-26.268 14.688-44.45 38.12-52.229 63.618-10.049 2.999-19.262 8.619-26.552 16.474-31.399 33.829-52.221 79.266-58.629 127.941-7.255 55.107 4.04 109.446 31.803 153.007 27.996 43.925 69.438 71.823 116.692 78.554 4.968.711 9.596-2.769 10.257-7.789l1.525-11.585c24.317 6.729 49.922 6.739 74.273 0l1.525 11.585c.318 2.418 1.564 4.562 3.508 6.038 1.887 1.432 4.268 2.104 6.747 1.752 85.205-12.138 148.533-93.82 150.579-194.222.085-4.142-3.204-7.568-7.345-7.652zm-145.657-121.365c-7.99 10.413-18.98 17.694-31.47 20.979l-6.609-50.197 50.198-6.609c.059 12.915-4.13 25.414-12.119 35.827zm-9.264-110.316c16.01 5.802 30.16 15.245 41.302 27.772-4.536 3.474-10.11 5.393-15.952 5.393-17.183 0-29.901-16.373-25.35-33.165zm7.103-28.879c10.361-17.91 27.997-30.441 48.385-34.381 2.02-.39 3.462.494 4.142 1.056.679.56 1.818 1.806 1.818 3.856 0 2.383-1.748 4.453-4.156 4.921-17.496 3.4-32.634 14.173-41.534 29.556l-6.541 11.308c-3.137-1.274-6.331-2.415-9.574-3.421zm-81.562 28.879c4.553 16.799-8.173 33.166-25.351 33.166-5.841 0-11.415-1.919-15.952-5.393 11.139-12.523 25.283-21.967 41.303-27.773zm-50.431 39.678c7.129 5.466 15.894 8.488 25.08 8.488 27.076 0 47.08-25.873 39.768-52.302 14.942-3.137 30.659-3.141 45.623 0-7.306 26.405 12.671 52.302 39.768 52.302 9.187 0 17.951-3.021 25.08-8.487 3.078 4.847 5.709 9.994 7.837 15.398-2.731-.019-5.479.149-8.225.51-.126.017-22.815 3.004-22.714 2.99-.003 0-.007.001-.01.001l-64.548 8.498c-24.886-3.276-64.728-8.526-64.559-8.5-.003 0-.006-.001-.009-.001l-22.705-2.989c-2.746-.361-5.494-.529-8.225-.511 2.13-5.404 4.761-10.55 7.839-15.397zm29.054 34.812 50.192 6.608-6.608 50.192c-25.663-6.786-43.671-30.256-43.584-56.8zm23.449 324.656 6.388-48.522c.541-4.107-2.351-7.874-6.457-8.415-4.108-.536-7.875 2.351-8.415 6.457l-7.191 54.62c-.012.078-.022.156-.031.235l-1.87 14.208c-85.531-16-143.42-110.383-129.808-213.777 6.006-45.618 25.45-88.126 54.751-119.695 9.775-10.532 24.194-15.692 38.559-13.798l15.654 2.061c-1.028 34.772 22.73 65.735 56.583 73.74l-21.89 166.267c-.541 4.107 2.351 7.874 6.457 8.415 4.116.538 7.875-2.35 8.415-6.457l24.011-182.383c3.392 25.764 31.434 238.763 35.157 267.044-22.988 6.777-47.302 6.783-70.313 0z"/><path d="m405.944 218.737c-1.25-9.492-6.121-17.929-13.716-23.757-7.595-5.829-17.005-8.349-26.498-7.101-19.594 2.58-33.437 20.62-30.857 40.214 2.372 18.014 17.81 31.166 35.511 31.166 10.848 0 21.419-4.849 28.46-14.025 5.828-7.594 8.349-17.005 7.1-26.497zm-32.816 25.342c-11.395 1.5-21.884-6.549-23.384-17.943s6.549-21.884 17.943-23.384c11.391-1.5 21.884 6.547 23.384 17.943 1.501 11.394-6.549 21.884-17.943 23.384z"/><path d="m362.797 445.033c10.849 0 21.419-4.849 28.46-14.025 5.828-7.595 8.35-17.006 7.1-26.498s-6.121-17.929-13.716-23.757-17.004-8.346-26.498-7.1c-19.594 2.58-33.436 20.62-30.857 40.214 2.372 18.014 17.81 31.167 35.511 31.166zm-2.695-56.508c5.429-.717 10.924.687 15.408 4.128 4.417 3.389 7.249 8.295 7.976 13.815s-.739 10.992-4.128 15.408c-3.389 4.417-8.295 7.249-13.815 7.976-11.392 1.502-21.883-6.549-23.384-17.943-1.5-11.394 6.549-21.884 17.943-23.384z"/><path d="m347.974 362.742c12.091-1.592 22.839-7.797 30.264-17.473s10.637-21.664 9.045-33.755-7.797-22.839-17.473-30.264c-9.675-7.424-21.664-10.636-33.755-9.045-24.961 3.287-42.595 26.268-39.309 51.229 3.28 24.917 26.216 42.597 51.228 39.308zm-36.357-41.267c-2.207-16.761 9.634-32.192 26.395-34.398 7.975-1.051 16.056 1.002 22.666 6.073 6.497 4.985 10.664 12.202 11.732 20.321 1.069 8.119-1.088 16.169-6.073 22.666s-12.202 10.664-20.321 11.732c-16.764 2.21-32.192-9.633-34.399-26.394z"/><path d="m136.974 258.951c19.593 2.578 37.634-11.262 40.214-30.857 2.579-19.594-11.263-37.634-30.857-40.214-9.494-1.249-18.902 1.272-26.498 7.101-7.596 5.828-12.467 14.265-13.716 23.757-2.579 19.593 11.264 37.633 30.857 40.213zm-15.984-38.256c1.499-11.391 11.987-19.445 23.384-17.943 11.394 1.5 19.443 11.99 17.943 23.384s-11.993 19.443-23.384 17.943c-11.395-1.5-19.443-11.99-17.943-23.384z"/><path d="m153.917 373.653c-19.593-2.581-37.634 11.262-40.214 30.857-1.25 9.492 1.272 18.902 7.101 26.498 7.04 9.176 17.611 14.025 28.46 14.025 17.699 0 33.139-13.153 35.51-31.166 2.579-19.594-11.263-37.634-30.857-40.214zm15.985 38.256c-1.5 11.394-11.991 19.446-23.384 17.943-11.394-1.5-19.443-11.99-17.943-23.384.727-5.52 3.559-10.426 7.976-13.815 4.416-3.389 9.888-4.859 15.408-4.128 11.394 1.5 19.443 11.99 17.943 23.384z"/><path d="m176.007 272.205c-12.094-1.589-24.08 1.621-33.755 9.045-9.676 7.424-15.881 18.172-17.473 30.264s1.62 24.08 9.045 33.755c7.424 9.676 18.172 15.881 30.264 17.473 24.954 3.285 47.941-14.344 51.229-39.309 3.284-24.96-14.349-47.941-39.31-51.228zm24.437 49.27c-2.207 16.761-17.64 28.604-34.398 26.395-8.119-1.068-15.336-5.235-20.321-11.732s-7.143-14.547-6.073-22.666c1.068-8.119 5.235-15.336 11.732-20.321 6.599-5.064 14.679-7.126 22.666-6.073 16.759 2.206 28.6 17.637 26.394 34.397z"/></svg>