<svg enable-background="new 0 0 512.098 512.098" height="512" viewBox="0 0 512.098 512.098" width="512" xmlns="http://www.w3.org/2000/svg"><path d="m288.108 316.114v14.127c0 4.142 3.358 7.5 7.5 7.5s7.5-3.358 7.5-7.5v-14.127c0-4.142-3.358-7.5-7.5-7.5s-7.5 3.358-7.5 7.5z"/><path d="m501.341 190.546c-14.465-14.465-62.234-14.339-113.584.296-3.984 1.136-6.292 5.285-5.157 9.269 1.136 3.984 5.29 6.294 9.269 5.157 51.602-14.708 91.212-11.77 98.866-4.116 6.369 6.369 10.6 37.84-.548 85.161-7.034 29.86-25.335 86.453-68.867 129.985-19.903 19.902-48.391 32.632-78.161 34.924-27.972 2.155-53.059-5.083-71.517-20.467 1.06-.995 2.106-2.01 3.139-3.042l23.933-23.933h63.763c4.142 0 7.5-3.358 7.5-7.5s-3.358-7.5-7.5-7.5h-48.763l33.44-33.44h59.707c4.142 0 7.5-3.358 7.5-7.5s-3.358-7.5-7.5-7.5h-44.707l29.057-29.057h35.809c4.142 0 7.5-3.358 7.5-7.5s-3.358-7.5-7.5-7.5h-20.809l45.604-45.604c2.929-2.929 2.929-7.678 0-10.606-2.929-2.929-7.678-2.929-10.606 0l-45.604 45.604v-31.11c0-4.142-3.358-7.5-7.5-7.5s-7.5 3.358-7.5 7.5v46.11l-29.057 29.057v-28.648c0-4.142-3.358-7.5-7.5-7.5s-7.5 3.358-7.5 7.5v43.648l-33.44 33.44v-12.931c0-4.142-3.358-7.5-7.5-7.5s-7.5 3.358-7.5 7.5v27.931l-23.933 23.933c-1.032 1.032-2.08 2.044-3.143 3.034-34.942-41.867-23.322-111.694 14.557-149.573 22.097-22.097 51.361-40.911 84.628-54.408 3.838-1.557 5.687-5.931 4.13-9.77-1.558-3.838-5.932-5.687-9.77-4.13-4.049 1.643-8.044 3.362-11.978 5.154-6.716-23.922-19.458-45.701-37.193-63.436-28.675-28.675-66.405-53.143-109.111-70.758-3.831-1.578-8.214.245-9.793 4.074s.245 8.214 4.074 9.793c40.895 16.867 76.935 40.208 104.225 67.497 16.552 16.553 28.255 37.028 34.064 59.504-14.53 7.521-28.085 16.054-40.374 25.412v-26.736c0-11.028-8.972-20-20-20s-20 8.972-20 20v51.795l-20.474-20.473v-50.086c0-11.028-8.972-20-20-20s-20 8.972-20 20v10.085l-15.001-15.001v-53.16c0-11.028-8.972-20-20-20s-20 8.972-20 20v13.16l-38.776-38.775c-7.798-7.798-20.486-7.798-28.284 0-7.798 7.797-7.798 20.486 0 28.284l38.774 38.774h-.297c-11.028 0-20 8.972-20 20s8.972 20 20 20h40.297l15.001 15.001h-30.133c-11.028 0-20 8.972-20 20s8.972 20 20 20h70.133l20.474 20.474h-35.196c-11.028 0-20 8.972-20 20s8.972 20 20 20h42.611c-2.501 13.686-3.102 28.226-1.242 42.353-42.43 7.916-85.398-5.295-116.147-36.043-54.671-54.671-77.643-125.695-86.47-163.165-14.236-60.43-8.68-99.57-.188-108.062 10.746-10.746 64.781-14.299 134.375 7.384 3.953 1.23 8.159-.975 9.392-4.93 1.232-3.955-.975-8.159-4.93-9.392-31.793-9.905-64.6-15.754-92.375-16.47-19.689-.509-45.569 1.302-57.068 12.801-15.769 15.768-17.298 64.839-3.806 122.108 9.192 39.021 33.169 113.037 90.464 170.333 34.21 34.211 82.635 48.887 129.638 40.15 3.933 14.9 10.738 28.368 20.201 39.766-20.559 14.925-45.217 22.981-71.114 22.981-4.142 0-7.5 3.358-7.5 7.5s3.358 7.5 7.5 7.5c29.838 0 58.214-9.518 81.659-27.118 19.278 16.999 44.902 26.059 73.542 26.058 36.367 0 73.105-14.419 98.376-39.691 46.156-46.156 65.461-105.742 72.861-137.152 9.087-38.578 11.546-84.214-3.447-99.207zm-232.851 17.217c2.757 0 5 2.243 5 5v39.137c-3.934 3.536-7.616 7.111-10 9.58v-48.717c0-2.756 2.243-5 5-5zm-60.348 51.803c-1.406-1.407-3.314-2.197-5.303-2.197h-73.239c-2.757 0-5-2.243-5-5s2.243-5 5-5h48.239c3.034 0 5.768-1.827 6.929-4.63s.519-6.028-1.626-8.173l-30.001-30.001c-1.406-1.407-3.314-2.197-5.303-2.197h-43.404c-2.757 0-5-2.243-5-5s2.243-5 5-5h18.404c3.034 0 5.768-1.827 6.929-4.63s.519-6.028-1.626-8.173l-51.577-51.578c-1.95-1.95-1.95-5.122 0-7.071 1.949-1.949 5.122-1.949 7.071 0l51.578 51.578c2.145 2.146 5.373 2.787 8.173 1.626 2.803-1.161 4.63-3.896 4.63-6.929v-31.266c0-2.757 2.243-5 5-5s5 2.243 5 5v56.266c0 1.989.79 3.897 2.197 5.303l30.001 30.001c2.145 2.146 5.373 2.787 8.173 1.626 2.803-1.161 4.63-3.896 4.63-6.929v-28.192c0-2.757 2.243-5 5-5s5 2.243 5 5v53.191c0 1.989.79 3.897 2.197 5.303l31.16 31.159c-1.806 2.939-3.508 5.956-5.1 9.043zm-23.133 58.277c-2.757 0-5-2.243-5-5s2.243-5 5-5h49.541c-1.236 3.283-2.355 6.62-3.353 10z"/></svg>