<svg enable-background="new 0 0 509.82 509.82" height="512" viewBox="0 0 509.82 509.82" width="512" xmlns="http://www.w3.org/2000/svg"><path d="m420.87 21.12c0-11.645-9.478-21.12-21.13-21.12h-34.83c-4.143 0-7.5 3.358-7.5 7.5s3.357 7.5 7.5 7.5h34.83c3.38 0 6.13 2.746 6.13 6.12v22.243h-301.92v-22.243c0-3.375 2.75-6.12 6.13-6.12h220.83c4.143 0 7.5-3.358 7.5-7.5s-3.357-7.5-7.5-7.5h-220.83c-11.651 0-21.13 9.475-21.13 21.12 0 0 .029 30.448.077 30.791l42.934 304.151c2.357 16.691 14.036 30.22 29.27 35.601v16.247c0 4.142 3.357 7.5 7.5 7.5s7.5-3.358 7.5-7.5v-13.731h157.359v84.391c0 8.96-7.29 16.25-16.25 16.25h-23.238v-41.712c0-8.881-7.226-16.106-16.106-16.106h-46.17c-8.881 0-16.106 7.225-16.106 16.106v41.712h-23.24c-8.96 0-16.25-7.29-16.25-16.25v-36.66c0-4.142-3.357-7.5-7.5-7.5s-7.5 3.358-7.5 7.5v36.66c0 17.231 14.019 31.25 31.25 31.25h124.86c17.231 0 31.25-14.019 31.25-31.25v-86.907c15.233-5.382 26.913-18.91 29.27-35.601l42.934-304.151m-190.075 401.197c0-.61.496-1.106 1.106-1.106h46.17c.61 0 1.106.497 1.106 1.106v41.712h-48.383v-41.712zm174.014-394.745-7.301 51.718h-285.045l-7.301-51.718zm-41.727 295.602c-2.029 14.374-14.507 25.214-29.023 25.214h-158.145c-14.517 0-26.994-10.84-29.023-25.214l-6.096-43.185h28.192c4.143 0 7.5-3.358 7.5-7.5s-3.357-7.5-7.5-7.5h-30.309l-24.096-170.699h280.811l-24.098 170.699h-168.309c-4.143 0-7.5 3.358-7.5 7.5s3.357 7.5 7.5 7.5h166.192z"/><path d="m206.184 234.276h25.151v25.152c0 7.736 6.294 14.03 14.031 14.03h19.088c7.737 0 14.031-6.294 14.031-14.03v-25.152h25.151c7.736 0 14.03-6.294 14.03-14.03v-19.089c0-7.737-6.294-14.031-14.03-14.031h-25.151v-25.152c0-7.736-6.294-14.03-14.031-14.03h-19.088c-7.737 0-14.031 6.294-14.031 14.03v25.152h-25.151c-7.736 0-14.03 6.294-14.03 14.031v19.089c-.001 7.736 6.293 14.03 14.03 14.03zm.969-32.15h31.682c4.143 0 7.5-3.358 7.5-7.5v-31.682h17.15v31.682c0 4.142 3.357 7.5 7.5 7.5h31.682v17.15h-31.682c-4.143 0-7.5 3.358-7.5 7.5v31.682h-17.15v-31.682c0-4.142-3.357-7.5-7.5-7.5h-31.682z"/></svg>