<svg enable-background="new 0 0 512 512" height="512" viewBox="0 0 512 512" width="512" xmlns="http://www.w3.org/2000/svg"><path d="m504.5 274.643c4.143 0 7.5-3.358 7.5-7.5 0-3.607-2.547-6.62-5.94-7.337.529-6.281.797-12.615.797-18.991 0-6.884-5.601-12.484-12.484-12.484h-3.189l18.447-20.292c2.786-3.065 2.561-7.809-.505-10.595-3.063-2.785-7.808-2.561-10.595.505l-16.6 18.261c1.127-24.962-2.098-52.954-9.181-77.159-11.137-38.055-30.437-62.541-54.345-68.947-25.863-6.927-57.532 7.205-87.951 38.927-5.901-10.613-13.172-21.585-21.935-31.385-16.454-18.402-34.604-28.129-52.485-28.129-26.521 0-52.878 21.018-74.216 59.183-.072.129-.144.259-.217.389-30.434-31.757-62.119-45.911-87.999-38.977-16.503 4.422-30.466 16.906-41.5 37.104-1.985 3.635-.648 8.192 2.986 10.178 3.637 1.986 8.192.648 10.178-2.986 8.991-16.459 19.831-26.487 32.219-29.806 21.048-5.643 49.551 8.78 76.855 38.685-13.282 28.279-21.505 59.885-21.505 84.057 0 7.088.717 14.114 2.137 20.988h-2.074l-18.685-29.364c-2.223-3.496-6.86-4.523-10.354-2.301-3.495 2.224-4.525 6.859-2.301 10.354l13.561 21.311h-19.523l-21.634-29.749c-2.437-3.35-7.126-4.09-10.477-1.655-3.35 2.437-4.091 7.127-1.654 10.477l15.218 20.926h-18.722l-24.615-30.086c-2.132-2.607-5.654-3.406-8.618-2.205.774-16.829 3.416-34.248 7.779-50.028 1.104-3.993-1.237-8.124-5.23-9.228-3.991-1.102-8.123 1.238-9.227 5.23-6.474 23.416-9.39 50.292-8.326 74.217l-16.62-18.283c-2.786-3.064-7.529-3.292-10.595-.505-3.065 2.786-3.291 7.53-.505 10.595l18.447 20.292h-3.189c-6.884 0-12.484 5.6-12.484 12.484 0 6.376.268 12.71.797 18.991-3.394.719-5.941 3.731-5.941 7.338 0 4.142 3.357 7.5 7.5 7.5h.192c.846 5.557 1.9 11.063 3.158 16.507-3.291.794-5.735 3.756-5.735 7.291 0 4.142 3.357 7.5 7.5 7.5h2.2c1.721 5.627 3.666 11.177 5.83 16.638-3.069.94-5.301 3.795-5.301 7.172 0 4.142 3.357 7.5 7.5 7.5h4.247c2.78 5.746 5.814 11.376 9.096 16.875-2.723 1.124-4.639 3.806-4.639 6.935 0 4.142 3.357 7.5 7.5 7.5h6.538c4.226 5.968 8.765 11.752 13.609 17.332-2.224 1.301-3.718 3.715-3.718 6.478 0 4.142 3.357 7.5 7.5 7.5h9.437c6.825 6.63 14.003 12.771 21.492 18.404-1.419 1.365-2.302 3.282-2.302 5.406 0 4.142 3.357 7.5 7.5 7.5h13.965c34.02 20.408 73.043 31.302 113.742 31.302 4.143 0 7.5-3.358 7.5-7.5s-3.357-7.5-7.5-7.5c-28.521 0-55.711-5.808-80.449-16.302h42.939c4.143 0 7.5-3.358 7.5-7.5s-3.357-7.5-7.5-7.5h-71.743c-7.893-4.935-15.43-10.388-22.563-16.31h210.195c4.143 0 7.5-3.358 7.5-7.5s-3.357-7.5-7.5-7.5h-226.429c-5.043-5.181-9.817-10.625-14.299-16.31h62.726c4.143 0 7.5-3.358 7.5-7.5s-3.357-7.5-7.5-7.5h-73.509c-3.447-5.275-6.66-10.717-9.623-16.31h289.163c4.143 0 7.5-3.358 7.5-7.5s-3.357-7.5-7.5-7.5h-296.351c-2.292-5.326-4.366-10.766-6.212-16.31h36.693c4.143 0 7.5-3.358 7.5-7.5s-3.357-7.5-7.5-7.5h-41.058c-1.339-5.354-2.468-10.789-3.379-16.298h263.343c4.143 0 7.5-3.358 7.5-7.5s-3.357-7.5-7.5-7.5h-265.261c-.488-5.381-.77-10.821-.836-16.312h471.684c-.066 5.491-.347 10.931-.836 16.312h-102.492c-4.143 0-7.5 3.358-7.5 7.5s3.357 7.5 7.5 7.5h100.575c-.911 5.508-2.04 10.944-3.379 16.298h-372.91c-4.143 0-7.5 3.358-7.5 7.5s3.357 7.5 7.5 7.5h368.545c-1.845 5.544-3.92 10.984-6.212 16.31h-79.801c-4.143 0-7.5 3.358-7.5 7.5s3.357 7.5 7.5 7.5h72.613c-2.963 5.593-6.176 11.035-9.623 16.31h-288.715c-4.143 0-7.5 3.358-7.5 7.5s3.357 7.5 7.5 7.5h277.93c-4.482 5.684-9.256 11.128-14.299 16.31h-77.295c-4.143 0-7.5 3.358-7.5 7.5s3.357 7.5 7.5 7.5h61.062c-7.134 5.922-14.671 11.375-22.563 16.31h-149.088c-4.143 0-7.5 3.358-7.5 7.5s3.357 7.5 7.5 7.5h120.284c-24.739 10.495-51.929 16.302-80.449 16.302h-22.87c-4.143 0-7.5 3.358-7.5 7.5s3.357 7.5 7.5 7.5h22.87c40.699 0 79.722-10.894 113.742-31.302h13.965c4.143 0 7.5-3.358 7.5-7.5 0-2.124-.883-4.042-2.302-5.406 7.488-5.633 14.666-11.773 21.491-18.404h9.438c4.143 0 7.5-3.358 7.5-7.5 0-2.763-1.494-5.176-3.718-6.478 4.844-5.58 9.383-11.364 13.609-17.332h6.538c4.143 0 7.5-3.358 7.5-7.5 0-3.129-1.916-5.81-4.639-6.935 3.282-5.5 6.316-11.129 9.096-16.875h4.247c4.143 0 7.5-3.358 7.5-7.5 0-3.377-2.231-6.232-5.301-7.172 2.165-5.461 4.11-11.011 5.83-16.638h2.2c4.143 0 7.5-3.358 7.5-7.5 0-3.534-2.444-6.497-5.735-7.291 1.258-5.445 2.312-10.95 3.158-16.507zm-38.583-46.312h-12.864l14.059-17.184c-.144 5.946-.542 11.71-1.195 17.184zm-209.884-163.814c31.662 0 59.637 42.409 73.972 78.725 1.521 3.852 5.875 5.745 9.73 4.222 3.853-1.521 5.743-5.877 4.223-9.73-1.737-4.401-3.815-9.306-6.25-14.5 27.291-29.875 55.777-44.277 76.814-38.641 32.502 8.709 50.251 63.002 52.423 111.463-2.973-1.224-6.517-.429-8.658 2.189l-24.615 30.086h-18.721l15.218-20.926c2.437-3.35 1.695-8.041-1.654-10.477-3.349-2.435-8.04-1.696-10.477 1.655l-21.634 29.749h-19.523l13.561-21.311c2.225-3.495 1.194-8.13-2.301-10.354-3.493-2.222-8.131-1.194-10.354 2.301l-18.685 29.364h-2.008c1.42-6.874 2.137-13.9 2.137-20.988 0-10.439-1.514-22.286-4.5-35.212-.932-4.036-4.957-6.551-8.996-5.62-4.035.932-6.552 4.96-5.619 8.996 1.614 6.987 2.772 13.742 3.44 20.009-2.447.189-4.752 1.572-6.015 3.887l-15.778 28.929h-20.903l10.105-22.234c1.714-3.771.046-8.217-3.725-9.931-3.775-1.715-8.218-.045-9.932 3.724l-12.927 28.441h-20.881v-25.337c0-4.142-3.357-7.5-7.5-7.5s-7.5 3.358-7.5 7.5v25.337h-20.884l-12.927-28.441c-1.714-3.771-6.156-5.439-9.932-3.724-3.771 1.714-5.438 6.16-3.725 9.931l10.105 22.234h-20.903l-15.778-28.929c-1.251-2.295-3.528-3.674-5.951-3.881 5.438-50.863 43.685-131.006 87.528-131.006zm82.817 163.814 4.457-8.172c-.4 2.75-.929 5.477-1.587 8.172zm-170.067-8.006 4.366 8.006h-2.804c-.643-2.641-1.165-5.312-1.562-8.006zm-109.835 8.006h-12.857c-.652-5.479-1.043-11.233-1.18-17.157z"/></svg>