<svg enable-background="new 0 0 512 512" height="512" viewBox="0 0 512 512" width="512" xmlns="http://www.w3.org/2000/svg"><path d="m512 75.83c0 20.54-8 39.86-22.53 54.39l-6.81 6.81c-.02 2.66-1.05 5.32-3.07 7.34l-20.01 20.01c-1.8 1.8-4.14 2.87-6.65 3.05l-13.45 13.45c-2.41 2.42-5.63 3.75-9.04 3.75-1.7 0-3.34-.33-4.86-.95l-19.23 33.29 3.28 3.28c2.93 2.93 2.93 7.68 0 10.61-2.93 2.92-7.68 2.93-10.61 0l-.43-.44-33.03 57.22 4.52 4.53c2.93 2.93 2.93 7.67 0 10.6s-7.67 2.93-10.6 0l-1.69-1.68-42.76 74.06 5.35 32.56c3.61 21.97-.53 44.68-11.66 63.96l-16.12 27.92c-1.65 2.86-4.66 4.59-7.94 4.59-.32 0 2.22.1-43.03-1.9l-2.81 4.87c-2.08 3.61-6.68 4.81-10.25 2.75-3.58-2.07-4.81-6.66-2.74-10.25l2.81-4.87c-25.18-39.48-23.54-36.89-23.69-37.15l-24.79-4.39-3.43 4.46c-2.51 3.28-7.22 3.91-10.51 1.39-3.29-2.53-3.91-7.23-1.39-10.52l3.43-4.46-16.19-34.66-30.41-9.61-3.97 3.98c-2.93 2.93-7.68 2.93-10.61 0s-2.93-7.68 0-10.61l3.98-3.97-9.61-30.41-34.66-16.18-4.46 3.42c-3.29 2.52-8 1.89-10.51-1.39-2.53-3.28-1.91-7.99 1.38-10.51l4.46-3.43-4.38-24.79c-.27-.15 2.1 1.35-37.16-23.69l-4.87 2.81c-3.58 2.07-8.17.86-10.25-2.74-2.07-3.59-.84-8.18 2.75-10.25l4.87-2.81-1.88-42.62c-.15-3.44 1.6-6.64 4.58-8.35l27.91-16.12c19.28-11.13 42-15.27 63.96-11.66l32.56 5.35 74.07-42.76-2.32-2.32c-2.93-2.93-2.93-7.68 0-10.61 2.92-2.92 7.67-2.92 10.6 0l5.16 5.17 57.22-33.04-1.07-1.06c-2.92-2.93-2.92-7.68 0-10.61 2.93-2.93 7.68-2.93 10.61 0l3.91 3.91 33.3-19.23c-1.86-4.53-1.04-10.07 2.79-13.9l13.46-13.46c.18-2.42 1.19-4.79 3.04-6.64l20.01-20.01c1.96-1.96 4.57-3.05 7.35-3.08l6.8-6.8c9.73-9.73 21.88-16.68 35.14-20.09 4.01-1.04 8.1 1.38 9.14 5.39 1.03 4.01-1.39 8.1-5.4 9.13-10.66 2.75-20.44 8.34-28.27 16.18l-4.58 4.58 87.57 87.57 4.58-4.58c11.7-11.69 18.14-27.24 18.14-43.78 0-29.1-19.91-53.01-46.13-59.89-4.01-1.05-6.4-5.16-5.35-9.16 1.05-4.01 5.16-6.4 9.16-5.35 32.62 8.57 57.32 38.26 57.32 74.4zm-59.86 74.78 13.68-13.68-91.85-91.84-13.67 13.67 47.45 47.45c2.93 2.93 2.93 7.68 0 10.61s-7.68 2.93-10.61 0l-45.65-45.66-9.3 9.3c2.91 2.91 86.62 86.63 88.25 88.25l9.3-9.3-17.18-17.18c-2.93-2.93-2.93-7.68 0-10.61 2.92-2.92 7.67-2.92 10.6 0zm-38.05 22.97-10.94-10.95-22.2 28.94 14.42 14.42zm-43.84 7.29 22.2-28.93-11.44-11.44-25.57 25.56zm-15.68 95.79 33.04-57.22-15.87-15.87-39.19 51.06zm15.83-146.77-11.43-11.44-28.93 22.2 14.8 14.81zm-48.54 114.05 39.18-51.07-16.2-16.2-45.13 45.12zm26.41-136.18-10.94-10.95-32.42 18.72 14.43 14.43zm-46.23 259.89 44.77-77.54-23.47-23.47-21.66 28.23c-2.52 3.28-7.22 3.91-10.52 1.38-3.28-2.52-3.9-7.23-1.38-10.51l22.86-29.8-23.53-23.54-63.64 63.64-3.26 32.84c-.25 2.48-.59 4.95-1.03 7.4 1.43-.41 2.87-.78 4.31-1.12l32.13-7.51 10.75-14c2.52-3.29 7.23-3.91 10.51-1.39 3.29 2.52 3.91 7.23 1.39 10.52l-10.75 14 1.06 32.98c.1 3.28.04 6.57-.19 9.83.67-.26-2.03.76 31.65-11.94zm-12.93-156.46 45.12-45.13-16.2-16.2-51.06 39.19zm18.22-72.02-15.87-15.88-57.21 33.04 22.02 22.02zm-11.6 325c9.4-16.28 12.9-35.47 9.85-54.02l-2.38-14.5-53.12 91.99 31.3 1.38zm-58.64 15.97 53.12-91.99-13.75 5.18c-3.08 1.16-6.09 2.51-9.01 4.04-3.25 12.35-8.92 24.04-16.78 34.28l-19.62 25.57c-1.56 2.03-3.85 3.29-6.32 3.54zm-22.23-194.7 63.64-63.65-23.54-23.53-71.71 55.02-7.51 32.13c-.34 1.44-.71 2.88-1.11 4.31 2.44-.44 4.91-.78 7.4-1.03zm6.44 159.84 17.47-22.76c11.45-14.92 17.42-33.49 16.82-52.28l-.47-14.69-64.67 84.28zm22.96-257.72-23.46-23.47-77.55 44.77c-12.35 32.75-11.69 31-11.94 31.65 3.26-.23 6.55-.29 9.84-.19l32.97 1.06zm-65.71 243.14 64.67-84.28-14.31 3.35c-4.3 1-8.52 2.36-12.6 4.05-4.83 12.61-12.27 24.17-21.91 33.82l-22.8 22.79c-.56.56-1.18 1.04-1.84 1.43zm28.73-103.3 1.45-14.63-75.11 75.12 29.88 9.44 20.29-20.3c13.3-13.3 21.64-30.92 23.49-49.63zm-84.27 49.88 75.12-75.11-14.62 1.45c-18.72 1.85-36.34 10.2-49.64 23.49l-20.29 20.3c1.48 4.7 4.36 13.82 9.43 29.87zm38.13-95.29 3.34-14.3-84.27 64.66 18.83 8.8c.39-.67.87-1.29 1.43-1.85l22.79-22.79c9.65-9.65 21.22-17.09 33.83-21.91 1.68-4.09 3.04-8.31 4.05-12.61zm-90.06 38.46 84.27-64.66-14.69-.47c-18.79-.59-37.35 5.36-52.27 16.81l-22.77 17.47c2.01 11.36 4.26 24.09 5.46 30.85zm46.49-86.01 5.19-13.74-92 53.11 19.38 12.36c.26-2.47 1.51-4.75 3.54-6.32l25.58-19.62c10.23-7.85 21.92-13.53 34.27-16.78 1.53-2.92 2.88-5.93 4.04-9.01zm-94.31 26.38 92-53.11-14.5-2.39c-18.56-3.05-37.74.45-54.03 9.85l-24.85 14.35z"/></svg>