<svg enable-background="new 0 0 512.044 512.044" height="512" viewBox="0 0 512.044 512.044" width="512" xmlns="http://www.w3.org/2000/svg"><path d="m312.717 259.033c-2.743 3.104-2.451 7.844.651 10.587 3.096 2.738 7.836 2.458 10.587-.651l11.686-13.219c21.207-23.988 28.921-56.774 20.634-87.703l-1.026-3.831c-.968-3.609-3.811-6.452-7.421-7.42l-3.83-1.026c-30.93-8.287-63.715-.573-87.703 20.634l-13.219 11.686c-3.103 2.743-3.395 7.483-.651 10.587s7.483 3.395 10.587.651l13.219-11.686c20.209-17.867 47.828-24.364 73.885-17.384l1.318.354.354 1.318c6.98 26.056.482 53.677-17.384 73.885z"/><path d="m504.388 30.119-2.525-9.426c-1.371-5.113-5.398-9.141-10.513-10.512l-9.425-2.525c-72.538-19.438-149.436-1.346-205.701 48.395l-79.838 70.58c-3.104 2.743-3.395 7.483-.651 10.587s7.483 3.394 10.587.651l79.838-70.58c52.485-46.399 124.22-63.274 191.882-45.144l9.352 2.506 2.506 9.352c18.131 67.667 1.255 139.398-45.145 191.883l-104.791 118.536-20.545-35.586c-4.698-8.135-9.813-16.148-15.204-23.816-5.116-7.28-12.797-12.025-21.627-13.362-8.771-1.327-17.832 1.021-24.853 6.443l-19.902 15.37-19.26-19.26 15.369-19.901c5.424-7.021 7.771-16.081 6.443-24.854-1.337-8.829-6.082-16.51-13.361-21.625-7.674-5.394-15.688-10.51-23.817-15.204l-35.586-20.545 12.777-11.295c3.104-2.743 3.395-7.483.651-10.587s-7.482-3.394-10.587-.651l-16.729 14.789c-2.306 2.038-3.683 4.973-3.777 8.049-.123 4 1.925 7.924 5.597 10.049l40.152 23.182c7.747 4.473 15.382 9.347 22.693 14.485 3.896 2.739 6.438 6.858 7.155 11.6.729 4.814-.508 9.587-3.483 13.44l-14.827 19.2c-5.047-2.112-11.098-1.12-15.2 2.982l-16.668 16.668c-10.762-9.255-26.8-8.708-36.923 1.413-5.827 5.828-8.674 13.874-7.812 22.075.739 7.033-2.069 14.482-7.514 19.926l-60.907 60.907c-2.929 2.93-2.929 7.678 0 10.607 2.931 2.929 7.678 2.928 10.607 0l60.907-60.907c8.739-8.74 13.05-20.44 11.824-32.102-.387-3.68.89-7.288 3.502-9.9 4.637-4.637 12.042-4.794 16.86-.355.049.045.1.091.149.135l16.185 16.185c2.93 2.929 7.679 2.93 10.606.001 2.93-2.929 2.93-7.678.001-10.606l-6.825-6.825 15.826-15.827c9.915 9.915 23.434 23.433 31.464 31.463l-15.896 15.896c-2.93-2.111-7.043-1.85-9.681.788-2.929 2.929-2.929 7.678.001 10.606l4.466 4.466c4.649 4.649 3.915 3.908 4.172 4.187 4.438 4.818 4.281 12.225-.354 16.861-2.612 2.611-6.22 3.893-9.902 3.501-11.656-1.224-23.36 3.086-32.101 11.824l-112.865 112.864c-3.784 3.784-8.815 5.868-14.167 5.868s-10.383-2.084-14.167-5.869l-11.962-11.962c-3.785-3.784-5.869-8.816-5.869-14.167s2.084-10.383 5.869-14.168l26.727-26.728c2.929-2.929 2.929-7.678-.001-10.606-2.93-2.93-7.679-2.929-10.606.001l-26.726 26.727c-6.618 6.617-10.263 15.415-10.263 24.774s3.645 18.156 10.262 24.774l11.962 11.962c6.618 6.617 15.416 10.262 24.774 10.262s18.157-3.645 24.774-10.262l112.868-112.866c5.444-5.444 12.895-8.255 19.926-7.514 8.203.866 16.248-1.985 22.076-7.812 10.12-10.121 10.667-26.16 1.412-36.922l16.668-16.668c4.101-4.102 5.094-10.152 2.982-15.2l19.201-14.827c3.853-2.975 8.623-4.216 13.438-3.484 4.742.718 8.861 3.26 11.601 7.157 5.136 7.306 10.01 14.94 14.485 22.691l23.185 40.158c2.034 3.523 5.785 5.597 9.705 5.597 3.172 0 6.257-1.37 8.39-3.782l108.284-122.49c49.741-56.263 67.832-133.161 48.395-205.701z"/><path d="m42.335 469.709c2.931 2.929 7.678 2.928 10.607 0l18.671-18.671c2.929-2.93 2.929-7.678 0-10.607-2.93-2.928-7.678-2.928-10.607 0l-18.671 18.671c-2.929 2.929-2.929 7.677 0 10.607z"/><path d="m373.47 149.182 96.246-96.245c2.929-2.93 2.929-7.678 0-10.607-2.929-2.927-7.677-2.929-10.607 0l-96.246 96.245c-2.929 2.93-2.929 7.678 0 10.607 2.93 2.929 7.677 2.927 10.607 0z"/></svg>