<svg enable-background="new 0 0 511.82 511.82" height="512" viewBox="0 0 511.82 511.82" width="512" xmlns="http://www.w3.org/2000/svg"><path d="m504.22 125.53c4.143 0 7.5-3.358 7.5-7.5v-27.97c0-14.061-11.439-25.5-25.5-25.5h-70.72v-45.06c0-10.752-8.748-19.5-19.5-19.5h-280.18c-10.752 0-19.5 8.748-19.5 19.5v45.06h-70.72c-14.061 0-25.5 11.439-25.5 25.5v282.26c0 14.061 11.439 25.5 25.5 25.5h177.826l-6.152 46.67h-25.994c-14.061 0-25.5 11.439-25.5 25.5v30.33c0 6.341 5.159 11.5 11.5 11.5h20.62c4.143 0 7.5-3.358 7.5-7.5s-3.357-7.5-7.5-7.5h-17.12v-26.83c0-5.79 4.71-10.5 10.5-10.5h169.26c5.79 0 10.5 4.71 10.5 10.5v26.83h-138.14c-4.143 0-7.5 3.358-7.5 7.5s3.357 7.5 7.5 7.5h141.64c6.341 0 11.5-5.159 11.5-11.5v-30.33c0-14.061-11.439-25.5-25.5-25.5h-25.994l-6.153-46.67h177.827c14.061 0 25.5-11.439 25.5-25.5v-219.29c0-4.142-3.357-7.5-7.5-7.5s-7.5 3.358-7.5 7.5v163.096h-481.619v-226.066c0-5.79 4.71-10.5 10.5-10.5h70.72v183.914h-7.889c-4.143 0-7.5 3.358-7.5 7.5s3.357 7.5 7.5 7.5h334.957c4.143 0 7.5-3.358 7.5-7.5s-3.357-7.5-7.5-7.5h-7.889v-50.17c11.063-2.51 21.363-8.135 29.6-16.486l2.963 2.313c1.737 1.357 3.802 2.015 5.85 2.015 2.817 0 5.604-1.246 7.465-3.628 3.782-4.841 6.874-10.168 9.188-15.833 10.019-24.521 4.354-53.501-14.43-73.827-3.483-3.771-9.443-4.051-13.287-.623l-1.222 1.091c-5.582-4.815-12.056-8.611-19.043-11.13-2.335-.842-4.701-1.518-7.083-2.066v-15.57h70.72c5.79 0 10.5 4.71 10.5 10.5v27.97c-.001 4.142 3.356 7.5 7.499 7.5zm-204.804 318.96h-87.012l6.152-46.67h74.707zm197.304-113.364v41.194c0 5.79-4.71 10.5-10.5 10.5h-460.619c-5.79 0-10.5-4.71-10.5-10.5v-41.194zm-380.9-316.126h280.18c2.481 0 4.5 2.019 4.5 4.5v12.688h-289.18v-12.688c0-2.481 2.019-4.5 4.5-4.5zm-4.5 248.474v-216.286h289.18v46.422c-8.283.209-16.508 2.121-24.231 5.752-14.643 6.885-25.728 19.061-31.214 34.284-5.487 15.224-4.719 31.671 2.163 46.313 6.882 14.643 19.056 25.729 34.278 31.215 6.243 2.251 12.65 3.418 19.004 3.593v48.705h-289.18zm345.359-87.463c-1.096 2.683-2.418 5.269-3.95 7.732l-38.99-30.439 34.879-31.114c12.02 15.683 15.234 36.266 8.061 53.821zm-26.385-57.578-31.455 28.061c-2.108 1.879-3.265 4.577-3.173 7.399.092 2.823 1.422 5.44 3.649 7.18l33.86 26.435c-12.344 11.582-30.229 15.457-46.593 9.557-11.453-4.128-20.612-12.468-25.79-23.484-5.178-11.017-5.756-23.392-1.627-34.847 4.128-11.455 12.469-20.616 23.485-25.795 11.017-5.181 23.393-5.759 34.846-1.632 4.639 1.67 8.962 4.099 12.798 7.126z"/><path d="m233.605 364.476h44.609c4.143 0 7.5-3.358 7.5-7.5s-3.357-7.5-7.5-7.5h-44.609c-4.143 0-7.5 3.358-7.5 7.5s3.358 7.5 7.5 7.5z"/><path d="m344.866 218.101h-20.116v-95.631c0-5.238-4.262-9.5-9.5-9.5h-27.359c-5.238 0-9.5 4.262-9.5 9.5v95.631h-13v-76.861c0-5.238-4.262-9.5-9.5-9.5h-27.36c-5.238 0-9.5 4.262-9.5 9.5v76.861h-13v-52.081c0-5.238-4.262-9.5-9.5-9.5h-27.351c-5.238 0-9.5 4.262-9.5 9.5v52.081h-20.117c-4.143 0-7.5 3.358-7.5 7.5s3.357 7.5 7.5 7.5h205.304c4.143 0 7.5-3.358 7.5-7.5s-3.358-7.5-7.501-7.5zm-51.475-90.131h16.359v90.131h-16.359zm-59.361 18.77h16.36v71.361h-16.36zm-59.35 24.78h16.351v46.581h-16.351z"/></svg>