<svg enable-background="new 0 0 512 512" height="512" viewBox="0 0 512 512" width="512" xmlns="http://www.w3.org/2000/svg"><path d="m479.538 248.787-48.276-38.736 46.25-72.481c1.864-2.921 1.945-6.6.211-9.601-1.734-3-4.965-4.773-8.423-4.613l-85.912 3.858-9.345-61.207c-.892-5.845-6.97-9.371-12.499-7.222l-57.685 22.464-39.653-76.266c-1.598-3.074-4.742-4.983-8.206-4.983s-6.608 1.909-8.206 4.982l-19.764 38.012c-1.911 3.675-.48 8.203 3.194 10.114 3.675 1.912 8.204.48 10.114-3.194l14.662-28.198 36.933 71.03c2.181 4.198 7.15 6.069 11.562 4.353l55.805-21.732 9.042 59.219c.715 4.684 4.817 8.059 9.557 7.844l80.011-3.593-43.068 67.496c-2.544 3.988-1.68 9.228 2.009 12.188l46.709 37.479-46.709 37.479c-3.69 2.961-4.554 8.201-2.009 12.188l43.068 67.496-80.012-3.593c-4.732-.218-8.842 3.159-9.557 7.843l-9.042 59.219-55.806-21.732c-4.409-1.713-9.379.157-11.56 4.353l-36.933 71.031-36.933-71.03c-2.182-4.199-7.152-6.071-11.562-4.353l-55.805 21.732-9.042-59.219c-.714-4.684-4.812-8.059-9.557-7.844l-80.011 3.593 43.068-67.496c2.544-3.988 1.68-9.228-2.009-12.188l-46.709-37.479 46.709-37.479c3.69-2.961 4.554-8.201 2.009-12.188l-43.068-67.496 80.012 3.593c4.725.217 8.842-3.159 9.557-7.843l9.042-59.219 55.806 21.732c4.411 1.715 9.379-.157 11.56-4.353l5.651-10.868c1.911-3.675.481-8.203-3.194-10.114-3.674-1.91-8.203-.48-10.114 3.194l-3.27 6.289-57.684-22.463c-5.524-2.153-11.606 1.374-12.499 7.222l-9.345 61.206-85.912-3.858c-3.445-.157-6.689 1.612-8.422 4.613s-1.652 6.68.211 9.601l46.249 72.482-48.278 38.737c-4.614 3.704-4.608 10.724.002 14.425l48.276 38.736-46.25 72.481c-1.864 2.921-1.945 6.6-.211 9.601 1.734 3 4.974 4.772 8.423 4.613l85.912-3.858 9.345 61.207c.892 5.846 6.97 9.371 12.499 7.222l57.685-22.464 39.655 76.266c1.598 3.074 4.742 4.983 8.206 4.983s6.608-1.909 8.206-4.982l39.656-76.267 57.684 22.463c5.522 2.154 11.606-1.374 12.499-7.222l9.345-61.206 85.912 3.858c3.461.163 6.689-1.612 8.422-4.613s1.652-6.68-.211-9.601l-46.249-72.482 48.277-38.738c4.611-3.703 4.605-10.722-.005-14.423z"/><path d="m256 125.849c71.766 0 130.151 58.385 130.151 130.151 0 4.142 3.358 7.5 7.5 7.5s7.5-3.358 7.5-7.5c0-80.037-65.114-145.151-145.151-145.151s-145.151 65.114-145.151 145.151 65.114 145.151 145.151 145.151c65.745 0 123.436-44.325 140.295-107.79 1.063-4.003-1.32-8.111-5.323-9.174-4.005-1.062-8.111 1.319-9.174 5.323-15.116 56.901-66.846 96.641-125.798 96.641-71.766 0-130.151-58.385-130.151-130.151s58.385-130.151 130.151-130.151z"/></svg>