<svg enable-background="new 0 0 512 512" height="512" viewBox="0 0 512 512" width="512" xmlns="http://www.w3.org/2000/svg"><path d="m257.275 382.623v-64.588c0-4.143-3.357-7.5-7.5-7.5s-7.5 3.357-7.5 7.5v64.588c0 4.143 3.357 7.5 7.5 7.5s7.5-3.357 7.5-7.5z"/><path d="m235.153 439.779c0 12.666-3.134 25.17-9.062 36.16-1.967 3.646-.605 8.195 3.04 10.161 3.636 1.964 8.192.612 10.161-3.04 7.105-13.171 10.86-28.138 10.86-43.281v-21.438c0-4.143-3.357-7.5-7.5-7.5s-7.5 3.357-7.5 7.5v21.438z"/><path d="m242.653 268.994c4.143 0 7.5-3.357 7.5-7.5v-57.176c0-4.143-3.357-7.5-7.5-7.5s-7.5 3.357-7.5 7.5v57.176c0 4.143 3.358 7.5 7.5 7.5z"/><path d="m416.959 139.058c-1.512-.5-2.481-1.837-2.415-3.327.114-2.521.091-5.093-.069-7.646-1.009-16.061-8.335-31.732-20.628-44.13-12.297-12.399-27.908-19.853-43.958-20.985-10.041-.706-19.854.673-29.171 4.106-1.805.662-3.781-.188-4.499-1.941-16.188-39.569-54.272-65.135-97.024-65.135-33.139 0-63.622 15.179-83.634 41.645-2.498 3.304-1.845 8.008 1.459 10.506 3.306 2.499 8.009 1.845 10.506-1.459 17.151-22.683 43.273-35.692 71.669-35.692 36.635 0 69.27 21.908 83.141 55.813 3.791 9.27 14.146 13.807 23.568 10.336 7.308-2.693 15.023-3.775 22.928-3.218 25.843 1.824 49.048 25.222 50.672 51.091.126 2.018.146 4.047.056 6.034-.366 8.151 4.854 15.654 12.694 18.243 16.804 5.551 28.094 21.182 28.094 38.894 0 19.685-14.015 36.609-33.323 40.242-8.372 1.575-14.648 8.37-15.617 16.908-4.369 38.507-36.937 67.545-75.754 67.545-11.58 0-23.023-2.639-33.354-7.664v-14.785c0-3.705 1.443-7.188 4.063-9.808l61.557-61.558c4.474-4.475 6.481-10.865 5.369-17.095-1.113-6.229-5.208-11.53-10.953-14.179-6.75-3.112-14.804-2.049-20.514 2.718l-39.522 32.987v-47.771c16.134-1.122 29.26-14.245 30.614-30.132.353-4.127-2.708-7.759-6.835-8.11-4.122-.35-7.759 2.708-8.11 6.835-.733 8.601-7.77 15.658-16.367 16.417-4.255.373-8.451-.664-12.069-3.211-4.014-2.825-9.377-3.357-13.992-1.39-13.296 5.67-29.246 2.067-38.706-9.887-3.062-3.869-7.769-5.939-12.604-5.544-7.134.584-14.172-1.957-19.296-7.446-4.525-4.849-6.766-11.188-6.306-17.85.285-4.132-2.834-7.713-6.967-7.998-4.121-.272-7.713 2.833-7.998 6.967-.748 10.854 2.911 21.194 10.306 29.116 7.952 8.52 19.523 13.057 31.198 12.184 1.54 1.934 3.208 3.728 4.986 5.376v25.325l-43.402-22.62c-5.239-2.731-11.294-3.09-16.612-.978-5.167 2.05-9.199 6.296-11.062 11.65-3.068 8.818.565 18.602 8.641 23.264l53.796 31.059c5.33 3.077 8.641 8.812 8.641 14.967v54.554c-1.664.133-3.336.201-5.007.201-33.324 0-60.466-26.062-61.79-59.333-.224-5.611-4.799-10.007-10.415-10.007-33.795 0-61.289-27.494-61.289-61.289 0-27.316 18.337-51.573 44.592-58.988 7.414-2.094 12.847-8.576 13.519-16.131.51-5.735 1.574-11.433 3.164-16.933 1.15-3.979-1.144-8.138-5.122-9.288-3.977-1.147-8.138 1.143-9.288 5.122-1.857 6.426-3.101 13.077-3.695 19.771-.124 1.396-1.19 2.61-2.653 3.023-32.687 9.231-55.516 39.425-55.516 73.424 0 40.628 31.922 73.94 72.003 76.17 3.897 41.258 39.734 71.998 81.498 69.297v122.459c0 13.713-5.34 26.605-15.036 36.302l-20.496 20.497c-2.594 2.592-3.364 6.455-1.962 9.844s4.679 5.578 8.346 5.578h130.419c3.666 0 6.941-2.188 8.345-5.576s.635-7.251-1.957-9.844l-20.5-20.5c-9.696-9.695-15.036-22.588-15.036-36.301v-38.293c.017-.201.024-.402.024-.606v-18.257c0-4.143-3.357-7.5-7.5-7.5s-7.5 3.357-7.5 7.5v17.626c-.017.201-.024.402-.024.606v38.924c0 17.72 6.9 34.379 19.429 46.908l10.309 10.313h-101.606l10.312-10.312c12.528-12.529 19.429-29.188 19.429-46.908 0-43.954 0-104.253 0-192.052 0-11.497-6.185-22.21-16.141-27.957l-53.796-31.059c-1.85-1.068-2.68-3.315-1.975-5.343.56-1.606 1.629-2.321 2.429-2.639 1.282-.508 2.754-.389 4.148.338l46.056 24.003c4.122 2.147 8.958 1.992 12.931-.419 3.975-2.411 6.348-6.625 6.348-11.274v-18.901c5.491 2.149 11.407 3.283 17.5 3.283 6.438 0 12.686-1.257 18.571-3.735 1.912 1.311 3.95 2.409 6.075 3.284v54.958c0 5.011 2.819 9.443 7.357 11.566 4.54 2.126 9.748 1.45 13.597-1.762l43.18-36.037c1.285-1.074 3.101-1.314 4.621-.612 1.866.86 2.348 2.52 2.468 3.193s.243 2.398-1.21 3.851l-61.557 61.558c-5.453 5.454-8.456 12.704-8.456 20.415v53.184c0 4.143 3.357 7.5 7.5 7.5s7.5-3.357 7.5-7.5v-22.034c10.572 4.143 21.909 6.3 33.354 6.3 46.453 0 85.428-34.76 90.658-80.854.222-1.957 1.623-3.508 3.486-3.857 26.394-4.967 45.55-28.091 45.55-54.984.001-24.198-15.426-45.551-38.388-53.136z"/><path d="m224.761 51.547c-4.143 0-7.5 3.357-7.5 7.5v10.195c-9.819 3.173-16.941 12.403-16.941 23.264 0 13.477 10.965 24.441 24.441 24.441s24.44-10.965 24.44-24.441c0-10.861-7.122-20.091-16.94-23.264v-10.195c0-4.143-3.358-7.5-7.5-7.5zm0 50.4c-5.206 0-9.441-4.235-9.441-9.441s4.235-9.441 9.441-9.441c5.205 0 9.44 4.235 9.44 9.441s-4.235 9.441-9.44 9.441z"/><path d="m105.546 138.108c-4.143 0-7.5 3.357-7.5 7.5v4.021c-9.512 3.153-16.394 12.131-16.394 22.688 0 13.175 10.719 23.894 23.894 23.894s23.894-10.719 23.894-23.894c0-10.556-6.881-19.535-16.394-22.688v-4.021c0-4.142-3.358-7.5-7.5-7.5zm0 43.103c-4.904 0-8.894-3.989-8.894-8.894s3.989-8.894 8.894-8.894 8.894 3.989 8.894 8.894-3.99 8.894-8.894 8.894z"/><path d="m391.051 160.173c-4.143 0-7.5 3.357-7.5 7.5v3.993c-9.819 3.173-16.941 12.403-16.941 23.264 0 13.477 10.965 24.44 24.441 24.44s24.441-10.964 24.441-24.44c0-10.861-7.122-20.091-16.941-23.264v-3.993c0-4.143-3.358-7.5-7.5-7.5zm0 44.197c-5.206 0-9.441-4.235-9.441-9.44 0-5.206 4.235-9.441 9.441-9.441s9.441 4.235 9.441 9.441c0 5.205-4.235 9.44-9.441 9.44z"/><path d="m342.383 245.69c-4.143 0-7.5 3.357-7.5 7.5v2.616c-8.106 3.045-13.89 10.876-13.89 20.032 0 11.795 9.596 21.391 21.39 21.391 11.795 0 21.391-9.596 21.391-21.391 0-9.156-5.784-16.988-13.891-20.032v-2.616c0-4.142-3.358-7.5-7.5-7.5zm0 36.539c-3.523 0-6.39-2.867-6.39-6.391s2.866-6.39 6.39-6.39 6.391 2.866 6.391 6.39-2.868 6.391-6.391 6.391z"/></svg>